<svg width="115" height="118" viewBox="0 0 115 118" fill="none" xmlns="http://www.w3.org/2000/svg">
<path d="M49.5109 9.67241C22.789 14.0971 4.68323 39.6666 9.03637 66.7586C13.3895 93.8506 38.5608 112.254 65.2828 107.829C92.0047 103.405 110.11 77.8353 105.757 50.7433C101.404 23.6513 76.2329 5.24774 49.5109 9.67241ZM9.03558 66.7587C4.67559 39.624 22.8103 14.0637 49.5063 9.64328C76.2023 5.22291 101.398 23.6085 105.758 50.7432C110.118 77.8779 91.9834 103.438 65.2875 107.859C38.5915 112.279 13.3956 93.8934 9.03558 66.7587Z" stroke="url(#paint0_angular_1978_30675)" stroke-width="2"/>
<path d="M69.4943 38.6406C69.4943 40.3203 69.5275 41.9573 69.4813 43.5908C69.4576 44.4389 69.0607 45.184 68.5182 45.8379C66.052 48.8158 63.587 51.7949 61.1161 54.7693C60.4634 55.5546 59.9197 56.4051 59.7456 57.4179C59.6484 57.9805 59.3902 58.1404 58.8749 58.0623C58.7032 58.0362 58.5231 58.0587 58.3525 58.0587C57.9664 55.7643 58.2602 53.7482 60.0144 52.0247C61.4158 50.6471 62.6986 49.1297 63.8855 47.5602C64.5489 46.6836 64.9682 45.601 65.3828 44.5657C65.7227 43.7152 65.2844 43.162 64.3735 43.1608C59.6567 43.1525 54.9387 43.1525 50.2219 43.1608C49.3193 43.162 48.9438 43.695 49.2044 44.5799C49.7884 46.5628 51.0084 48.1548 52.3564 49.6651C53.3941 50.8271 54.4471 51.9749 55.4599 53.1583C56.1185 53.9271 56.4905 54.8024 56.3661 55.8697C56.2843 56.5662 56.3507 57.2793 56.3507 58.0208H55.101C55.0951 58.0125 55.056 57.9865 55.0501 57.9545C54.6923 55.7489 53.1015 54.3073 51.7807 52.7046C49.8855 50.4054 47.963 48.1299 46.0523 45.8438C45.4068 45.0715 45.0869 44.1866 45.0929 43.1774C45.1011 41.6801 45.0952 40.1829 45.0952 38.6406H69.4943Z" fill="#EDDBAC"/>
<path d="M64.6748 79.3662H49.8764C49.842 77.7813 49.9083 76.226 50.6238 74.7678C51.408 73.1723 52.5368 71.8859 54.0447 70.9299C55.2636 70.1576 56.4339 69.3213 57.1316 68.2197C57.7867 68.7848 58.4015 69.3628 59.0648 69.8757C59.7814 70.4301 60.5692 70.8944 61.2822 71.4523C63.9534 73.5418 64.9673 76.2592 64.6724 79.3662H64.6748Z" fill="#EDDBAC"/>
<path d="M57.2406 36.6365C52.5427 36.6365 47.8448 36.6365 43.1469 36.6365C42.7146 36.6365 42.1365 36.7159 42.0477 36.1935C41.9446 35.5834 42.0216 34.9201 42.1543 34.3101C42.1887 34.1513 42.7241 34.0175 43.0309 34.0163C46.3476 33.995 49.6631 34.0033 52.9786 34.0033C59.137 34.0033 65.2954 34.0033 71.4538 34.0009C71.8968 34.0009 72.4642 33.9583 72.5519 34.4581C72.6585 35.067 72.5815 35.7315 72.45 36.3427C72.4168 36.4967 71.8767 36.6223 71.5699 36.6247C68.175 36.6448 64.7801 36.6377 61.3852 36.6377C60.0041 36.6377 58.6217 36.6377 57.2406 36.6377V36.6365Z" fill="#EDDBAC"/>
<path d="M57.3008 81.363C62.0188 81.363 66.7357 81.363 71.4537 81.363C71.8848 81.363 72.4653 81.2813 72.5541 81.8037C72.6583 82.4137 72.5825 83.0771 72.4499 83.6871C72.4155 83.8458 71.8801 83.9797 71.5733 83.9832C68.85 84.0057 66.1256 83.9963 63.4012 83.9963C56.6505 83.9963 49.8998 83.9963 43.1492 83.9986C42.7073 83.9986 42.14 84.0436 42.0511 83.5426C41.9433 82.9337 42.0203 82.2692 42.1494 81.6568C42.1814 81.504 42.7227 81.3773 43.0295 81.3749C46.4446 81.3548 49.8596 81.3619 53.2734 81.3619C54.6155 81.3619 55.9576 81.3619 57.2996 81.3619L57.3008 81.363Z" fill="#EDDBAC"/>
<path d="M47.9647 79.3809H45.0969C45.0969 78.515 45.0969 77.6728 45.0969 76.8306C45.0969 76.1791 45.1076 75.5276 45.0945 74.8761C45.0744 73.7994 45.444 72.8802 46.1322 72.0593C48.5178 69.2188 50.8822 66.3605 53.2738 63.5247C54.0899 62.5582 54.7497 61.5288 54.9665 60.259C54.9819 60.1666 55.0411 60.0801 55.0825 59.9854H56.3168C56.3287 60.1962 56.3476 60.3857 56.3476 60.5753C56.35 61.7598 56.3038 62.9455 56.3595 64.1277C56.4519 66.1011 55.5398 67.519 54.0153 68.6289C53.5853 68.9416 53.1269 69.2176 52.6933 69.5256C49.6408 71.6886 47.9623 74.5871 47.9635 78.3812C47.9635 78.6939 47.9635 79.0066 47.9635 79.3809H47.9647Z" fill="#EDDBAC"/>
<path d="M69.5048 79.3748H66.6951C66.6276 78.4059 66.6335 77.4559 66.4854 76.5296C65.9856 73.3965 64.2242 71.0937 61.6478 69.3382C60.9169 68.8407 60.1719 68.3326 59.5571 67.7071C58.6947 66.8294 58.2055 65.7515 58.2411 64.4603C58.2813 62.9856 58.2505 61.5097 58.2505 60.0681C58.3429 60.016 58.3749 59.9828 58.4093 59.9804C59.518 59.9046 59.4552 59.9295 59.8437 60.9411C60.1363 61.7015 60.5225 62.4679 61.0307 63.0981C63.4601 66.1056 65.9406 69.0717 68.4162 72.0414C69.1412 72.912 69.5285 73.8774 69.5096 75.0217C69.4859 76.4573 69.5036 77.8941 69.5036 79.376L69.5048 79.3748Z" fill="#EDDBAC"/>
<path d="M57.305 52.3833C55.45 49.8318 52.9033 47.9674 51.4463 45.1162H63.1495C61.7162 47.9615 59.1576 49.8164 57.305 52.3833Z" fill="#EDDBAC"/>
<defs>
<radialGradient id="paint0_angular_1978_30675" cx="0" cy="0" r="1" gradientUnits="userSpaceOnUse" gradientTransform="translate(57.3969 58.7509) rotate(-99.1282) scale(50.7375 50.0192)">
<stop offset="0.0273552" stop-color="white" stop-opacity="0"/>
<stop offset="0.222565" stop-color="#FFEA9E"/>
<stop offset="0.380208" stop-color="#986530"/>
<stop offset="0.784375" stop-color="#DCCBB9"/>
<stop offset="0.784475" stop-color="white" stop-opacity="0"/>
</radialGradient>
</defs>
</svg>
