<svg width="115" height="117" viewBox="0 0 115 117" fill="none" xmlns="http://www.w3.org/2000/svg">
<path d="M49.5109 9.18755C22.789 13.6122 4.68323 39.1817 9.03637 66.2737C13.3895 93.3657 38.5608 111.769 65.2828 107.345C92.0047 102.92 110.11 77.3505 105.757 50.2584C101.404 23.1664 76.2329 4.76287 49.5109 9.18755ZM9.03558 66.2738C4.67559 39.1391 22.8103 13.5788 49.5063 9.15842C76.2023 4.73805 101.398 23.1236 105.758 50.2583C110.118 77.393 91.9834 102.953 65.2875 107.374C38.5915 111.794 13.3956 93.4085 9.03558 66.2738Z" stroke="url(#paint0_angular_1889_50735)" stroke-width="2"/>
<path d="M57.1215 63.9877L57.1219 63.9874L91.5514 40.3038L56.8721 74.7258C56.4711 75.1182 55.8295 75.1184 55.4283 74.7263C55.4281 74.7261 55.4279 74.726 55.4277 74.7258L22.7902 41.7889L55.6008 63.9877C55.6008 63.9877 55.6009 63.9877 55.6009 63.9877C56.0573 64.2979 56.6651 64.2978 57.1215 63.9877Z" fill="#EDDBAC" stroke="#6D4036" stroke-width="0.2"/>
<defs>
<radialGradient id="paint0_angular_1889_50735" cx="0" cy="0" r="1" gradientUnits="userSpaceOnUse" gradientTransform="translate(57.3969 58.2661) rotate(-99.1282) scale(50.7375 50.0192)">
<stop stop-color="#FFEA9E"/>
<stop offset="0.380208" stop-color="#986530"/>
<stop offset="0.755208" stop-color="#DCCBB9"/>
<stop offset="1" stop-color="white"/>
</radialGradient>
</defs>
</svg>
