<svg width="99" height="40" viewBox="0 0 99 40" fill="none" xmlns="http://www.w3.org/2000/svg">
<path d="M18.7313 30.3475C16.3731 30.151 14.1427 29.5025 11.9613 28.6771C11.9613 28.6575 11.9712 28.628 11.9712 28.6084C12.0694 28.6084 12.1775 28.6084 12.2758 28.6084C14.6045 28.5887 16.9332 28.5789 19.2619 28.5298C20.7357 28.5003 22.2096 28.5494 23.6834 28.4708C24.0372 28.4511 24.3319 28.5691 24.6464 28.6968C24.6562 28.7656 24.5874 28.7754 24.5481 28.795C24.0372 29.021 23.7621 29.4534 23.5262 29.925C23.4869 30.0036 23.4968 30.0822 23.4869 30.1608C23.4182 31.2024 23.4575 32.2439 23.4575 33.2756C23.4575 33.423 23.4182 33.5212 23.3101 33.6195C22.9465 33.9929 22.583 34.3761 22.2194 34.7494C22.0917 34.887 22.0131 35.0049 22.131 35.2014C22.2489 35.4078 22.3177 35.6534 22.4159 35.8696C22.583 36.2233 22.5535 36.5672 22.3864 36.9013C22.2194 37.2354 22.0524 37.5596 21.8952 37.8937C21.8264 38.0312 21.7281 38.1197 21.6004 38.1885C20.215 38.9254 18.7411 39.4363 17.2083 39.7999C15.9408 40.1045 14.6634 39.9571 13.3861 39.9964C12.8555 40.016 12.3347 39.9571 11.8238 39.8785C11.077 39.7606 10.3303 39.6328 9.59334 39.4363C8.78763 39.2202 8.00157 38.9352 7.25481 38.5717C6.43928 38.1688 5.66304 37.707 4.97524 37.0978C4.55273 36.7244 4.0811 36.4002 3.7765 35.9285C4.28744 35.7517 4.8082 35.9089 5.32897 35.8991C5.00472 35.5257 4.57239 35.6534 4.18918 35.6239C3.95336 35.6043 3.71755 35.5846 3.48173 35.5748C3.3933 35.5748 3.36382 35.4962 3.32452 35.4471C3.00027 35.0246 2.7448 34.5529 2.46968 34.1009C2.43038 34.042 2.39107 33.9929 2.33212 33.9437C1.89979 33.5704 1.59519 33.1085 1.4478 32.5485C1.3692 32.2439 1.25129 31.9393 1.1432 31.6445C1.0646 31.4185 0.818954 31.3989 0.651917 31.2711C0.484879 31.1336 0.278539 31.0451 0.082024 30.9469C-0.065362 30.8683 0.0230696 30.7798 0.0623726 30.7111C0.553659 29.7678 0.976166 28.7852 1.43798 27.8223C1.55588 27.5767 1.63449 27.3015 1.65414 27.0264C1.67379 26.8496 1.72292 26.8299 1.86048 26.8987C1.88013 26.9085 1.91944 26.9085 1.93909 26.8987C2.02752 26.8594 2.1356 27.0461 2.18473 26.8889C2.22403 26.7611 2.07665 26.7218 1.98822 26.6923C1.80153 26.6039 1.7917 26.4762 1.84083 26.3091C2.11595 25.356 2.54828 24.4717 3.10835 23.6562C3.52103 23.0568 3.98284 22.4968 4.53308 22.0251C5.20123 21.4356 5.90869 20.9148 6.66527 20.453C8.11948 19.5687 9.70142 19.0676 11.3521 18.7728C12.1186 18.6352 12.885 18.5665 13.671 18.537C14.3392 18.5075 14.9975 18.5075 15.6656 18.537C16.5696 18.5861 17.4736 18.6844 18.3677 18.7924C18.8983 18.8612 19.4191 19.0184 19.9595 19.0184C20.9617 19.0283 21.9345 18.8318 22.8777 18.5272C23.0939 18.4584 23.2315 18.4682 23.4083 18.5959C23.8996 18.9398 23.9487 19.0184 23.7227 19.6375C23.369 20.5906 22.7893 21.4061 22.1113 22.1529C20.9028 23.4892 19.4879 24.5405 17.9354 25.4346C17.8273 25.4936 17.7487 25.5133 17.6504 25.4641C17.5325 25.415 17.4146 25.3757 17.3065 25.3266C16.9332 25.1792 16.9233 25.1497 17.2378 24.9041C17.9943 24.3145 18.5741 23.5579 19.1341 22.8014C19.1734 22.7424 19.2029 22.6834 19.2422 22.6245C19.6254 21.9367 19.6352 22.0644 18.9573 21.7991C18.0435 21.4454 17.1002 21.2587 16.1176 21.1801C14.9975 21.0917 13.8872 21.131 12.7867 21.357C11.4013 21.6517 10.1338 22.2216 9.0431 23.1452C8.26686 23.8036 7.65767 24.5798 7.14673 25.4641C6.793 26.0831 6.793 26.7022 6.95021 27.3605C7.08777 27.9402 7.28429 28.5101 7.49063 29.08C7.1369 29.0996 6.82248 28.9523 6.4884 28.913C6.35084 28.8933 6.32137 28.913 6.32137 29.0505C6.30172 29.9152 6.39997 30.7602 6.64562 31.5856C7.00917 32.8433 7.65767 33.9241 8.55181 34.8674C9.82916 36.2233 11.362 37.1469 13.1896 37.5498C13.8774 37.707 14.5848 37.7856 15.3021 37.7659C16.5794 37.7266 17.8273 37.5203 19.0653 37.2059C19.3208 37.1371 19.4289 37.0487 19.4289 36.7539C19.4092 35.3685 19.4289 33.983 19.4092 32.5976C19.3994 32.2439 19.4387 31.8607 19.1538 31.5659C18.8099 31.2122 18.4267 30.9174 17.9845 30.6914C17.9157 30.6619 17.7782 30.6718 17.8077 30.544C17.8273 30.4458 17.9452 30.4949 18.014 30.4851C18.2793 30.4261 18.5053 30.3868 18.7313 30.3475Z" fill="#8A8A8A"/>
<path d="M49.1617 23.9604C49.1617 23.9211 49.1617 23.872 49.1617 23.8327C49.1617 23.7836 49.142 23.7148 49.2108 23.6951C49.2698 23.6755 49.3091 23.7246 49.3385 23.7639C49.7021 24.2159 50.0656 24.6777 50.4292 25.1297C51.0482 25.8961 51.6476 26.6723 52.3059 27.4191C52.4533 27.5861 52.5123 27.5567 52.64 27.3896C53.0232 26.8885 53.4261 26.407 53.8191 25.9158C54.2612 25.3655 54.7034 24.8054 55.1554 24.2552C55.5288 23.8032 55.912 23.3709 56.2755 22.9189C56.6391 22.4767 56.9731 22.0149 57.3465 21.5826C57.6904 21.1896 58.0048 20.7769 58.3291 20.374C58.4568 20.2168 58.388 19.9221 58.1915 19.8631C58.0736 19.8336 57.8771 19.7943 57.8869 19.7452C57.9164 19.588 58.0147 19.4504 58.0835 19.303C58.1129 19.2441 58.1719 19.2637 58.221 19.2637C60.4908 19.2441 62.7507 19.2244 65.0204 19.2146C65.0401 19.2146 65.0695 19.2244 65.1285 19.2441C64.8927 19.4897 64.7355 19.7452 64.3719 19.814C64.0084 19.8828 63.6546 20.0301 63.3009 20.1775C63.1044 20.266 63.0258 20.4428 63.0258 20.6786C63.0356 22.575 63.0258 24.4615 63.0258 26.3579C63.0258 26.6822 62.8293 26.8689 62.4952 26.8983C62.3183 26.918 62.1415 26.918 61.9646 27.0064C62.171 27.1833 62.3969 27.3012 62.5738 27.4584C62.9079 27.763 62.9275 27.8711 62.9079 28.4803C62.8686 29.6495 62.9079 30.8286 62.8489 31.9979C62.7802 33.2851 62.8293 34.5722 62.8882 35.8594C62.9177 36.5276 62.9767 37.2055 63.1928 37.854C63.4286 38.5517 63.8905 38.9447 64.6372 39.0135C64.8534 39.0331 65.0892 39.0233 65.2955 39.1412C64.6667 39.21 57.1107 39.1608 56.9633 39.0822C57.2581 38.9545 57.5725 38.9938 57.8771 38.9054C58.614 38.7089 59.2036 37.9916 59.2625 37.2448C59.3018 36.6946 59.2822 36.1542 59.292 35.6039C59.292 35.4958 59.2822 35.3878 59.4099 35.3386C59.5475 35.2993 59.6654 35.3092 59.7637 35.4172C59.803 35.4565 59.803 35.545 59.8914 35.4958C59.9503 35.4664 59.9503 35.4074 59.9405 35.3583C59.9307 35.2993 59.9798 35.2109 59.8619 35.2011C59.292 35.1618 59.2822 34.7884 59.2822 34.3364C59.292 30.75 59.292 27.1734 59.292 23.5871C59.292 23.4986 59.292 23.4004 59.292 23.3119C58.8793 23.7836 58.4175 24.1864 58.2996 24.8251C58.2701 25.0216 58.2898 25.1985 58.3487 25.3557C58.4077 25.5325 58.3389 25.6505 58.2407 25.7487C58.1228 25.8666 58.0245 25.7389 57.9164 25.6996C57.7592 25.6308 57.6609 25.395 57.4939 25.4638C57.3563 25.5227 57.2777 25.7291 57.1697 25.8666C56.5212 26.7215 55.8235 27.5468 55.2536 28.4606C54.9883 28.893 54.6641 29.2762 54.3693 29.679C54.3398 29.7281 54.3005 29.7576 54.3398 29.8166C54.4283 29.9443 54.3398 30.0524 54.2514 30.1212C54.0942 30.2489 54.2121 31.5164 54.0352 31.654C53.9075 31.7522 53.6717 31.7719 53.7503 32.0274C53.7601 32.0667 53.6717 32.1453 53.6127 32.1747C52.9446 32.5186 52.5614 33.1377 52.1291 33.7076C51.7655 34.1694 51.5788 34.7393 51.3233 35.2699C51.2939 35.3288 51.284 35.4467 51.1858 35.4271C51.1072 35.4074 51.1268 35.3092 51.117 35.2404C51.0089 34.6901 50.8517 34.1497 50.8222 33.5995C50.8124 33.3244 50.8026 33.0296 50.7928 32.7446C50.7928 32.5874 50.8615 32.4695 50.95 32.3713C51.0974 32.1846 51.1072 31.9586 51.1563 31.7424C51.176 31.6638 51.1367 31.6933 51.0974 31.6736C50.7338 31.5262 50.6552 31.2806 50.8714 30.9465C50.9205 30.8777 50.9008 30.8483 50.8615 30.7893C50.3702 30.1801 49.879 29.5709 49.3877 28.9519C49.0339 28.4999 48.7097 28.0185 48.3265 27.5861C47.845 27.0359 47.4127 26.4562 46.9705 25.8863C46.4203 25.1788 45.7915 24.5205 45.2805 23.7836C45.1921 23.6558 45.084 23.5379 44.9759 23.42C44.9366 23.3807 44.8875 23.3021 44.8384 23.3316C44.7991 23.3512 44.7794 23.4397 44.7794 23.4986C44.7401 24.0194 44.7008 24.5401 44.6811 25.0609C44.6025 26.7215 44.6615 28.382 44.6811 30.0426C44.7008 31.2904 44.7303 32.5481 44.7499 33.796C44.7499 34.0711 44.7303 34.3462 44.7204 34.6115C44.7204 34.7687 44.5829 34.8277 44.4846 34.9063C44.3864 34.9751 44.2685 35.0144 44.18 35.1225C44.5829 35.034 44.6222 35.0537 44.6025 35.4467C44.5829 36.0166 44.5338 36.5963 44.4945 37.1662C44.4945 37.2252 44.5043 37.3038 44.4158 37.3136C44.3274 37.3333 44.2685 37.294 44.2292 37.2153C44.0425 36.8714 43.846 36.5276 43.6494 36.1738C43.3547 35.6531 43.0599 35.1225 42.7651 34.6017C42.4311 33.9925 42.1068 33.3735 41.7432 32.7839C41.7138 32.7446 41.7334 32.666 41.7432 32.6071C41.7924 30.9072 41.7727 29.2172 41.7727 27.5173C41.7727 27.311 41.7924 27.1931 42.0282 27.3012C42.0577 27.311 42.097 27.3012 42.1756 27.3012C41.7826 27.0457 41.5959 26.7018 41.4878 26.299C41.4386 26.1123 41.2028 26.0926 41.0653 25.9845C41.026 25.9452 40.9572 25.9452 40.8982 25.9158C40.5052 25.6799 40.4462 25.5129 40.6624 25.1395C41.0554 24.4517 41.3895 23.7344 41.7629 23.0368C41.812 22.9484 41.812 22.8698 41.812 22.7813C41.7924 22.2213 41.8808 21.6514 41.7727 21.0913C41.7629 21.0324 41.8022 21.0127 41.8513 21.0225C41.9299 21.0324 41.9987 21.052 42.0871 21.052C41.871 20.7278 41.5762 20.5018 41.2028 20.3839C40.4954 20.1775 39.7781 19.981 39.0608 19.7845C38.9822 19.7648 38.9036 19.8238 38.8348 19.755C38.7169 19.6175 38.5794 19.4701 38.6187 19.303C38.6383 19.1949 38.8348 19.2637 38.9527 19.2637C41.5074 19.2637 44.0523 19.2736 46.607 19.2736C46.9018 19.2736 47.0197 19.4308 46.9411 19.7255C46.9214 19.8041 46.8821 19.7943 46.833 19.8041C46.7544 19.814 46.6758 19.8336 46.607 19.8631C46.4301 19.9417 46.3908 20.1087 46.5087 20.2561C47.2064 21.1306 47.9138 22.0149 48.6114 22.8894C48.7981 23.1154 48.8473 23.4102 48.975 23.6755C49.0241 23.7639 49.0536 23.8622 49.0929 23.9604C49.1322 23.9506 49.1519 23.9604 49.1617 23.9604Z" fill="#8A8A8A"/>
<path d="M75.2389 15.7364C75.4551 15.6283 75.6614 15.6185 75.8579 15.5792C76.2608 15.4809 76.4966 15.2451 76.5654 14.8422C76.644 14.3608 76.7914 13.8793 76.5654 13.3782C76.4475 13.1227 76.2608 13.0245 76.0545 12.9262C75.8776 12.8378 75.8285 12.7493 75.9464 12.5725C76.6145 11.6194 76.8798 10.5779 76.7619 9.38894C76.6735 8.50463 76.7128 7.59083 76.7128 6.67704C76.7128 6.33314 76.6833 5.98924 76.6735 5.64534C76.6735 5.60604 76.6735 5.57656 76.6735 5.53726C76.703 4.90841 76.7521 4.86911 77.3613 4.85928C77.4595 4.85928 77.5578 4.85928 77.6561 4.8298C77.4595 4.7905 77.263 4.76102 77.0665 4.71189C76.8209 4.65294 76.585 4.34834 76.5556 4.09287C76.5163 3.66054 76.5261 3.22821 76.3689 2.81553C76.3394 2.72709 76.3099 2.66814 76.2313 2.60919C75.8973 2.37337 75.5632 2.13755 75.2389 1.88208C75.1112 1.78382 75.0228 1.78382 74.895 1.88208C73.9026 2.59936 73.038 3.4149 72.4681 4.51538C72.3796 4.68242 72.2716 4.63329 72.1536 4.62346C71.7803 4.57433 71.7901 4.57433 71.7901 4.21078C71.7901 3.95531 71.7803 3.69002 71.7508 3.44437C71.6918 3.00222 71.3578 2.72709 70.9058 2.73692C69.9232 2.74675 68.9308 2.7664 67.9482 2.78605C67.5061 2.79588 67.3096 3.06117 67.4078 3.4935C67.4569 3.70967 67.5257 3.91601 67.5847 4.142C67.4078 4.1813 67.2506 4.09287 67.0639 4.09287C67.0639 4.58416 67.0639 5.06562 67.0639 5.55691C67.0639 5.83203 67.1229 6.1268 66.7397 6.27419C67.0344 6.30366 67.0737 6.46087 67.0639 6.67704C67.0443 7.18798 67.0639 7.70874 67.0639 8.23933C67.398 8.1509 67.6633 7.98386 67.8991 7.7677C67.9777 7.68909 68.0563 7.62031 68.1742 7.64979C68.5672 7.72839 68.9701 7.68909 69.373 7.68909C70.1688 7.69892 70.9549 7.68909 71.7508 7.68909C72.0259 7.68909 72.301 7.65961 72.5663 7.60066C72.8021 7.54171 73.0183 7.67927 73.2345 7.70874C73.3131 7.71857 73.3131 7.78735 73.264 7.8463C72.9495 8.23933 72.7039 8.69132 72.2519 8.95661C72.0357 9.08435 71.7999 9.11382 71.5641 9.12365C70.159 9.20226 68.7638 9.24156 67.3587 9.23173C67.113 9.23173 67.0541 9.29069 67.0639 9.53633C67.0737 10.5877 67.0737 11.6292 67.0639 12.6806C67.0639 13.2308 67.2604 13.7024 67.6142 14.1053C67.8598 14.3804 68.2037 14.4197 68.5279 14.459C69.3533 14.5671 70.1983 14.5475 71.0237 14.4885C71.2104 14.4787 71.3185 14.6261 71.4953 14.6261C70.9254 13.6238 71.0335 12.6216 71.7999 11.7275C72.1831 11.2755 72.6449 10.9218 73.1755 10.6466C73.3524 10.5582 73.8633 10.6172 74.0009 10.7449C74.0893 10.8235 73.9812 10.8726 73.9518 10.9218C73.657 11.4032 73.431 11.9142 73.3426 12.4841C73.2148 13.3389 73.4605 14.0856 73.9223 14.7833C74.1876 15.1763 74.502 15.5202 74.8754 15.815C74.9343 15.8641 74.9835 15.9231 75.0817 16.0115C74.3546 16.0115 73.6766 16.0115 72.9987 16.0115C72.4681 16.0213 71.9277 16.0213 71.4069 16.0017C69.8053 15.9329 68.1939 16.0017 66.5923 15.8936C66.2287 15.8739 65.875 15.9427 65.5114 15.9132C65.1381 15.8838 64.7647 15.9034 64.3913 15.9034C64.0081 15.9034 63.6249 15.8739 63.2417 15.9034C62.9371 15.9231 62.7602 15.7855 62.603 15.5497C62.9273 15.4023 63.2614 15.3139 63.566 15.1173C64.0278 14.8029 64.2734 14.3411 64.3029 13.84C64.3225 13.5747 64.185 13.2013 63.8705 13.0245C63.3596 12.7395 63.3596 12.7395 63.6347 12.2581C63.8706 11.8356 64.0965 11.413 64.3324 10.9905C64.3815 10.8923 64.3717 10.8039 64.3717 10.7056C64.3717 8.40637 64.352 6.09732 64.3815 3.7981C64.3913 2.93344 64.0376 2.33407 63.2908 1.94104C63.2319 1.91156 63.114 1.93121 63.1434 1.83295C63.1631 1.74452 63.281 1.774 63.3596 1.774C63.9885 1.774 64.6271 1.79365 65.256 1.76417C67.0344 1.70522 68.8129 1.75435 70.5815 1.70522C71.8687 1.66592 73.1559 1.65609 74.443 1.67574C75.7007 1.68557 76.9486 1.59714 78.2063 1.54801C79.6409 1.48905 81.0852 1.42027 82.5198 1.4694C83.7382 1.5087 84.9566 1.61679 86.1062 2.04912C86.4992 2.19651 86.8824 2.37337 87.2067 2.64849C87.3541 2.77622 87.5211 2.7664 87.6881 2.75657C87.8257 2.74675 87.9436 2.78605 88.0419 2.88431C88.7395 3.57211 89.1227 4.39747 89.0343 5.38987C88.9753 6.03837 88.7002 6.61809 88.3661 7.16833C87.7864 8.13125 86.9905 8.81905 85.9097 9.17278C85.1924 9.4086 84.4555 9.4086 83.7185 9.4086C83.5024 9.4086 83.296 9.30051 83.0406 9.36929C83.7677 10.0767 84.5734 10.5779 85.5461 10.7842C85.9392 10.8628 86.2044 11.0593 86.401 11.4229C86.8726 12.2777 87.3737 13.1227 87.9338 13.9284C88.0026 14.0267 88.0812 14.1249 88.1205 14.2429C88.1991 14.459 88.258 14.6654 88.543 14.7243C88.6412 14.744 88.7002 14.9012 88.7886 14.9896C89.1816 15.4121 89.6336 15.7658 90.1249 16.0606C90.3804 16.2178 90.6752 16.2964 90.9699 16.2866C91.4907 16.2768 91.9427 16.5323 92.4733 16.66C90.0267 17.5148 85.6444 16.3259 84.1509 14.2723C84.1607 14.2723 84.1705 14.2723 84.1803 14.2723C84.3179 14.2625 84.4948 14.4099 84.593 14.233C84.6913 14.066 84.5537 13.9186 84.4653 13.7909C83.9249 13.0146 83.3746 12.2482 82.8342 11.472C82.3135 10.7351 81.7337 10.0473 81.1835 9.33982C80.8592 8.92714 80.535 8.51445 80.2009 8.0723C80.3974 8.05264 80.5645 8.09195 80.7413 8.10177C81.5176 8.13125 82.2742 8.1116 83.0111 7.86596C83.5613 7.67927 84.0624 7.44345 84.4653 7.01112C84.5832 6.88338 84.6716 6.74582 84.7404 6.58861C84.8288 6.40192 84.8878 6.21523 84.5439 6.23488C84.3474 6.24471 84.2983 6.11697 84.426 5.96959C84.6618 5.69447 84.8092 5.37022 84.8485 5.02632C84.8976 4.67259 84.7502 4.31886 84.5242 4.03392C84.0723 3.46403 83.4532 3.20856 82.7753 3.05134C82.225 2.92361 81.665 2.87448 81.0951 2.90396C80.6726 2.92361 80.2599 2.98256 79.8472 3.05134C79.7195 3.071 79.7391 3.1496 79.7391 3.22821C79.7391 3.52298 79.7293 3.81775 79.7391 4.11252C79.7489 4.25991 79.6212 4.31886 79.5819 4.4073C79.5131 4.56451 79.5131 4.7905 79.5721 4.95754C79.8275 5.62569 79.7686 6.31349 79.7391 7.00129C79.7293 7.24693 79.7293 7.49258 79.7195 7.74805C79.7096 7.85613 79.7588 7.98386 79.6016 8.04282C79.5328 8.0723 79.5524 8.1116 79.5819 8.17055C79.7686 8.51445 79.7489 8.90748 79.7588 9.28086C79.8079 10.9218 79.7195 12.5725 79.7096 14.2134C79.7096 14.6752 79.8668 15.1075 79.9946 15.5399C80.0339 15.6774 80.1813 15.756 80.3385 15.7855C80.6726 15.8641 80.9772 16.0213 81.2818 16.1884C81.2032 16.1884 81.1245 16.1982 81.0361 16.1982C79.8767 16.1785 78.7172 16.1294 77.5578 16.1392C77.1255 16.1392 76.6931 16.0704 76.2706 16.0999C75.9169 16.1097 75.5927 15.9722 75.2389 15.7364Z" fill="#8A8A8A"/>
<path d="M98.2905 19.2934C98.1726 19.4604 97.9859 19.5489 97.8287 19.657C96.7577 20.3841 96.0306 21.3863 95.4804 22.5261C95.3133 22.87 95.107 23.204 94.9498 23.5578C94.7827 23.9311 94.4388 24.0196 94.1146 24.0982C93.8886 24.1571 93.6528 24.3733 93.4563 24.2456C93.2991 24.1473 93.3187 23.8427 93.1713 23.6659C92.906 23.3416 92.8078 22.8896 92.4639 22.6243C91.5206 21.8776 90.5085 21.2585 89.3 21.0817C88.4058 20.9539 87.5117 20.9638 86.6372 21.2192C85.7038 21.4845 85.1928 22.133 84.9668 23.0468C84.7998 23.715 85.0454 24.2456 85.4876 24.7172C86.254 25.5327 87.1973 26.083 88.1602 26.6234C89.3196 27.2719 90.5577 27.7534 91.7368 28.3429C92.9453 28.9423 94.0753 29.6792 95.0087 30.6716C95.5688 31.2611 96.011 31.9195 96.1485 32.7448C96.2468 33.3049 96.2075 33.8748 96.1878 34.4447C96.1387 35.6631 95.6179 36.685 94.8712 37.6086C94.3799 38.1981 93.8689 38.768 93.132 39.0824C92.3361 39.4165 91.5206 39.6229 90.6658 39.7015C89.4572 39.8095 88.2486 39.7506 87.0499 39.7408C86.2933 39.7408 85.5465 39.6032 84.7998 39.4165C84.1316 39.2495 83.5028 39.0038 82.9427 38.6108C82.1468 38.0606 81.5082 37.3629 81.0955 36.4786C80.9874 36.2428 80.9186 35.9873 80.9383 35.7122C80.9481 35.5059 80.8597 35.2995 80.8793 35.0932C80.9186 34.3857 81.1348 33.7274 81.459 33.0986C81.4983 33.02 81.5377 33.0298 81.5966 33.02C81.7538 33.0003 81.9209 33.0003 82.0682 32.9512C82.2844 32.8726 82.3728 32.9217 82.422 33.1477C82.5595 33.8944 82.9624 34.5036 83.4242 35.0834C84.2397 36.1151 85.2714 36.852 86.5291 37.245C87.0302 37.4022 87.5412 37.53 88.0619 37.5398C89.0936 37.5693 90.0369 37.245 90.8721 36.6457C91.6189 36.1052 91.9824 35.3487 91.9726 34.4349C91.9726 34.1696 92.0512 34.0615 92.3067 34.0811C92.5327 34.1008 92.7292 34.0025 93.0043 33.9141C92.6506 33.9141 92.3853 33.7962 92.1003 33.7962C92.0217 33.7962 91.9333 33.7471 91.8842 33.639C91.5796 32.9413 91.0686 32.4108 90.4496 31.9686C89.7814 31.4871 89.0642 31.0941 88.3174 30.7502C87.8556 30.534 87.384 30.3179 86.873 30.2196C86.5389 30.1607 86.5095 30.0624 86.7158 29.7971C86.7649 29.7283 86.8337 29.6694 86.9123 29.5809C86.6372 29.5515 86.421 29.6596 86.1951 29.689C85.7234 29.748 85.3402 29.5416 84.9472 29.3451C83.7877 28.7752 82.815 27.9794 82.1861 26.8396C81.8128 26.1714 81.577 25.4345 81.4197 24.6779C81.1839 23.4988 81.5966 22.5064 82.2549 21.573C82.3237 21.4747 82.3335 21.3372 82.4711 21.3175C82.4514 21.2192 82.4023 21.2487 82.363 21.2487C82.3237 21.2487 82.2746 21.2487 82.1468 21.2487C82.4121 20.9834 82.6087 20.728 82.8543 20.5511C83.7583 19.9222 84.731 19.4113 85.7824 19.1067C86.6077 18.8709 87.4429 18.6842 88.3174 18.7039C88.5041 18.7039 88.6908 18.6744 88.8775 18.6646C90.3513 18.5958 91.7859 18.8316 93.1812 19.3229C93.5938 19.4703 94.0163 19.4703 94.429 19.4899C95.1561 19.5292 95.8832 19.5489 96.6103 19.431C96.8363 19.3917 97.0721 19.4113 97.2981 19.372C97.5732 19.3327 97.8484 19.3131 98.1137 19.2148C98.1628 19.2344 98.2316 19.2344 98.2905 19.2934Z" fill="#8A8A8A"/>
<path d="M82.6476 39.4065C77.0077 39.3377 71.3677 39.2395 65.6982 39.2002C65.826 39.0233 65.9635 39.0823 66.0913 39.0528C67.1033 38.7973 67.8304 38.1292 68.0662 37.068C68.1841 36.5178 67.9483 36.0756 67.7322 35.6334C67.6241 35.4075 67.3195 35.3485 67.0935 35.2208C66.9461 35.1323 66.8577 35.1127 66.9854 34.8965C67.349 34.2873 67.6536 33.6486 67.9778 33.0198C68.194 32.5973 68.2038 32.1846 68.2038 31.7523C68.2038 28.5393 68.2136 25.3361 68.194 22.1231C68.194 21.504 68.0564 20.8752 67.5455 20.433C67.29 20.2169 67.0149 20.0204 66.7103 19.873C66.5433 19.7845 66.4941 19.7452 66.6415 19.5684C66.8872 19.2834 67.1721 19.2146 67.5357 19.2146C70.7487 19.1852 73.9519 19.136 77.1649 19.0967C78.963 19.0771 80.7513 19.0378 82.5494 19.0083C82.5887 19.0083 82.6182 19.0083 82.7066 19.0181C82.3725 19.2834 82.0581 19.5291 81.7633 19.7747C80.6628 20.6787 79.7392 21.73 79.1005 23.0074C78.9335 23.3415 78.6093 23.4102 78.3145 23.5281C78.1966 23.5773 78.2359 23.4495 78.2359 23.3906C78.2457 22.8895 78.2555 22.3884 78.1474 21.8872C78.0492 21.4058 77.6562 20.9145 77.0961 20.9145C75.5338 20.9243 73.9715 20.8752 72.4092 20.9636C72.252 20.9734 72.2225 21.0324 72.2127 21.1798C72.1931 21.5728 72.311 21.9462 72.4387 22.3097C72.4977 22.4768 72.5173 22.5849 72.3011 22.634C72.2127 22.6536 72.1341 22.7323 72.0653 22.801C71.9867 22.8895 71.9081 22.8895 71.7902 22.8305C71.7902 23.4987 71.7804 24.157 71.8 24.8055C71.8098 25.0511 71.7607 25.228 71.5249 25.3754C71.3284 25.5031 71.1024 25.6014 70.955 25.8077C71.1122 25.8863 71.24 25.7782 71.3775 25.7193C71.6919 25.5817 71.7902 25.6407 71.7902 25.9747C71.7902 26.8885 71.7902 27.8023 71.7902 28.7358C72.2225 28.6473 72.5959 28.4705 72.9005 28.1561C73.1658 27.8809 73.4901 27.7336 73.8733 27.7434C75.0818 27.7729 76.2904 27.8023 77.4989 27.7729C78.0983 27.763 78.7075 27.763 79.3069 27.7336C79.6213 27.7139 79.9357 27.6353 80.2698 27.5763C80.0242 28.0087 79.7294 28.3821 79.4444 28.7554C78.8746 29.5022 78.0492 29.6987 77.1747 29.7675C75.4355 29.905 73.7062 29.9149 71.9671 29.9247C71.8 29.9247 71.7804 29.9836 71.7804 30.1212C71.7902 31.7425 71.7509 33.3539 71.8 34.9751C71.8197 35.8594 72.4485 37.0582 73.7455 37.4414C74.1975 37.5789 74.6593 37.6576 75.1408 37.6674C75.976 37.687 76.821 37.6674 77.6758 37.6576C77.5972 37.4709 77.5088 37.3038 77.4597 37.127C77.1551 35.9872 77.4105 34.9456 78.0688 33.9827C78.6289 33.177 79.3757 32.5678 80.2403 32.1257C80.5449 31.9684 80.8888 31.9684 81.2819 31.88C80.4467 33.1574 80.034 34.474 80.3582 35.9479C80.6727 37.3824 81.5472 38.4534 82.6476 39.4065Z" fill="#8A8A8A"/>
<path d="M29.4415 39.1218C28.9011 39.2397 21.0896 39.338 20.9619 39.2495C21.3255 39.1218 21.7185 39.112 22.1017 39.0235C22.534 38.9155 22.8386 38.6698 23.0548 38.3456C23.3496 37.9034 23.5559 37.4023 23.8114 36.9307C23.8998 36.7636 23.8114 36.5082 23.9784 36.4099C24.1258 36.3215 24.342 36.4099 24.5188 36.4394C24.5287 36.4394 24.5483 36.4197 24.5778 36.3902C24.1651 36.0856 23.7917 35.7417 23.5166 35.3192C23.4282 35.1817 23.3201 35.0932 23.5363 34.936C24.0668 34.543 24.568 34.1107 25.0986 33.7176C25.5702 33.3639 25.865 32.8923 26.1303 32.3715C28.0659 28.51 30.0114 24.6387 31.9471 20.7771C32.1927 20.276 32.4482 19.7847 32.7037 19.2836C32.8216 19.0478 32.9198 19.038 33.0869 19.2345C33.2539 19.431 33.4209 19.6374 33.5389 19.8732C34.433 21.6222 35.337 23.3515 36.2409 25.0906C36.6241 25.8276 37.0172 26.5547 37.3807 27.3014C37.5478 27.6552 37.7541 27.9794 37.9408 28.3233C38.9725 30.2983 40.0042 32.2733 41.0654 34.2384C41.7237 35.4568 42.3722 36.6752 43.0698 37.8739C43.4727 38.5617 44.0426 38.8565 44.7992 38.9449C45.0153 38.9744 45.2708 38.9155 45.5066 39.112C42.7357 39.112 40.0042 39.112 37.2628 39.112C37.7246 38.9548 38.2061 38.9253 38.6581 38.7582C38.8644 38.6796 39.0413 38.5716 39.1985 38.434C39.3655 38.2866 39.3852 38.0999 39.3459 37.9034C39.3262 37.7953 39.2771 37.7265 39.1494 37.7757C38.9528 37.8543 38.7465 37.8936 38.5107 37.8346C38.5107 37.6381 38.6581 37.4711 38.6679 37.2549C38.6875 36.6457 38.4419 36.1053 38.1668 35.5944C37.9211 35.1325 37.6853 34.6609 37.4495 34.1991C37.3807 34.0615 37.3316 34.0124 37.1842 34.0222C36.1132 34.1303 35.0324 34.1795 33.9515 34.2089C32.6054 34.2482 31.2691 34.317 29.923 34.2875C29.4612 34.2777 29.1664 34.376 28.9601 34.8279C28.459 35.9186 27.8399 36.9503 27.4174 38.0704C27.3093 38.3456 27.3585 38.5028 27.6238 38.66C27.9775 38.8762 28.3705 38.9744 28.7832 39.0235C28.9895 39.0727 29.2155 39.1513 29.4415 39.1218ZM29.7363 33.3246C29.8051 33.3639 29.8444 33.3443 29.9033 33.3246C30.6501 33.1084 31.3084 32.7154 31.9373 32.2831C32.0355 32.2143 32.124 32.175 32.2419 32.1848C33.0967 32.2045 33.9515 32.1947 34.7966 32.2536C35.2485 32.2831 35.7005 32.2438 36.1427 32.342C36.6929 32.4698 35.897 31.5167 35.5924 30.9468C34.8653 29.5614 34.1088 28.1858 33.3522 26.8101C33.3129 26.7315 33.2932 26.6235 33.1753 26.5842C33.0574 26.82 32.9198 27.0558 32.8216 27.2916C32.7331 27.5176 32.6152 27.5078 32.4482 27.3899C32.3499 27.3211 32.2615 27.2327 32.0748 27.213C32.1731 27.4095 32.2517 27.5766 32.3401 27.7239C32.4384 27.8713 32.4285 27.9991 32.3499 28.1563C31.9176 28.9915 31.4951 29.8267 31.0628 30.6618C30.6304 31.5462 30.1785 32.4305 29.7363 33.3246Z" fill="#8A8A8A"/>
<path d="M22.0916 3.93574C21.6396 4.34842 21.4136 4.88883 21.1287 5.38012C21.0304 5.55698 20.9518 5.74367 20.8634 5.92054C20.7946 6.06792 20.716 6.19566 20.5489 6.25461C20.4703 6.28409 20.3819 6.34304 20.4015 6.45113C20.4802 6.88346 20.1559 7.07997 19.9004 7.28631C19.645 7.48283 19.5271 7.76777 19.3305 8.00359C19.2519 8.10185 19.3305 8.18046 19.3698 8.25906C20.2149 9.83118 21.0599 11.4033 21.9147 12.9754C22.3372 13.7516 22.7892 14.5082 23.2215 15.2746C23.2412 15.3139 23.2707 15.3532 23.3001 15.3827C23.5753 15.648 23.5654 15.6284 23.2215 15.8249C22.9268 16.0017 22.6123 16.0607 22.2684 16.0607C21.561 16.0509 20.8437 16.0607 20.1363 16.0705C20.0871 16.0705 20.0478 16.0803 19.9987 16.0705C19.8513 16.041 19.6646 16.1884 19.5762 16.0902C19.5172 16.0214 19.7236 15.9035 19.7924 15.7954C19.8513 15.6873 19.7924 15.5792 19.7531 15.4908C19.3404 14.4591 18.8491 13.4569 18.2792 12.494C18.0139 12.0518 17.7584 11.6096 17.4931 11.1773C17.3949 11.0201 15.8719 13.0147 15.1546 14.1938C15.0465 14.3707 14.8893 14.4198 14.7124 14.4689C14.6338 14.4984 14.5258 14.4886 14.4668 14.5377C14.1819 14.7539 14.0639 14.5574 13.946 14.351C13.3368 13.3291 12.7276 12.3171 12.1185 11.2952C12.03 11.1478 12.0005 11.1184 11.9121 11.2952C11.2931 12.6119 10.5562 13.8696 10.0452 15.2353C9.93714 15.5203 9.89784 15.7561 10.2516 15.9723C9.77993 16.1295 9.3869 16.3555 8.91526 16.3555C8.0506 16.3456 7.18593 16.4439 6.31144 16.4046C6.19353 16.3948 6.0265 16.4832 5.94789 16.3555C5.86928 16.2179 6.03632 16.1491 6.09528 16.0509C6.46865 15.4417 6.80273 14.8128 7.11715 14.1742C7.3628 13.6829 7.62809 13.2112 7.83443 12.7101C7.96217 12.4055 8.13903 12.2188 8.48293 12.1992C8.44363 12.1206 8.3945 12.1402 8.34537 12.1402C8.16851 12.1501 8.15868 12.0911 8.22746 11.9339C8.7777 10.6762 9.43603 9.46763 10.055 8.23941C10.1238 8.10185 10.1238 8.00359 10.055 7.86603C9.76028 7.25684 9.3476 6.72625 8.98404 6.16618C8.92509 6.08757 8.88579 6.00897 8.88579 5.91071C8.88579 5.7535 8.84648 5.62576 8.64014 5.59629C8.44363 5.56681 8.41415 5.37029 8.36502 5.21308C8.26676 4.88883 8.27659 4.52528 8.04077 4.24033C8.0113 4.22068 8.0113 4.17155 7.99164 4.1519C7.89339 4.05365 7.7067 3.97504 7.77548 3.82765C7.82461 3.71957 8.02112 3.78835 8.14886 3.75887C8.64014 3.65079 9.02335 3.84731 9.40655 4.13225C10.0059 4.58424 10.6348 4.97727 11.2341 5.41942C11.4208 5.55698 11.4405 5.47838 11.5191 5.33099C12.3739 3.62131 13.2386 1.91164 14.0934 0.201957C14.1622 0.0742225 14.2212 0.054571 14.3587 0.0250938C14.9286 -0.0829893 15.1939 0.162654 15.4396 0.673592C16.2354 2.30466 17.1001 3.91609 17.9353 5.52751C17.9746 5.60611 18.0139 5.68472 18.063 5.7535C18.122 5.85176 18.2006 5.85176 18.289 5.7928C19.2126 5.09517 20.2542 4.58424 21.2662 4.02417C21.5119 3.89643 21.8165 3.98487 22.0916 3.93574ZM14.7223 10.6467C15.1743 9.97857 15.6164 9.36937 16.0979 8.77983C16.1863 8.68157 16.1372 8.61279 16.0881 8.52436C15.754 7.93481 15.4297 7.33544 15.1055 6.73607C14.9679 6.4806 14.8205 6.22513 14.6633 5.95001C14.5159 6.27426 14.2015 6.12688 13.9755 6.23496C14.005 6.31357 14.0246 6.38235 14.0639 6.43147C14.2212 6.63781 14.2015 6.83433 14.0738 7.06032C13.8478 7.44353 13.6709 7.84638 13.4646 8.23941C13.386 8.37697 13.386 8.48505 13.4744 8.62261C13.8969 9.28094 14.2998 9.94909 14.7223 10.6467Z" fill="#8A8A8A"/>
<path d="M47.5107 1.85265C49.3678 1.85265 51.1561 1.85265 52.9345 1.85265C52.6693 2.00004 52.3843 2.09829 52.1485 2.27516C51.6474 2.63871 51.4214 3.12017 51.5098 3.72936C51.5196 3.82762 51.5196 3.92588 51.5098 4.02414C51.441 4.8495 51.4312 5.68469 51.5196 6.51005C51.5491 6.8343 51.6081 7.15855 51.7751 7.45332C51.9127 7.71861 52.1092 7.866 52.4236 7.85617C53.9466 7.84635 55.4598 7.85617 56.9828 7.85617C57.3561 7.85617 57.6411 7.63018 57.7393 7.27646C57.8081 7.01116 57.8965 6.74587 57.8572 6.46092C57.8278 6.23493 57.9555 6.2251 58.1127 6.28406C58.2208 6.32336 58.3092 6.40197 58.437 6.35284C58.378 6.21528 58.2503 6.16615 58.1324 6.12684C57.9555 6.05806 57.8965 5.94998 57.8965 5.76329C57.9064 4.98706 57.8965 4.22065 57.9064 3.44442C57.9064 3.22825 57.8376 3.04156 57.7786 2.84505C57.6804 2.5208 57.4151 2.36359 57.14 2.2162C56.9434 2.10812 56.7469 2.00004 56.5406 1.89195C56.7961 1.76422 61.6401 1.74457 61.9447 1.86247C61.6893 1.96073 61.4338 2.04916 61.2078 2.18672C60.7067 2.51097 60.4611 2.97278 60.4611 3.57215C60.4709 6.85395 60.4709 10.1259 60.4512 13.4077C60.4512 13.84 60.52 14.2527 60.5691 14.6654C60.6379 15.196 60.972 15.4318 61.5714 15.4908C61.7974 15.5104 62.0627 15.4613 62.2395 15.6775C62.2788 15.7266 62.3673 15.7757 62.328 15.8543C62.2985 15.9329 62.2002 15.9035 62.1314 15.9035C61.1292 15.9035 60.127 15.9035 59.1149 15.8936C58.2994 15.8838 57.4839 15.874 56.6585 15.8641C56.5602 15.8641 56.462 15.8642 56.3637 15.8445C56.2163 15.8248 56.1672 15.6873 56.1574 15.5792C56.1377 15.4318 56.2851 15.5104 56.3539 15.4809C56.5701 15.3925 56.8059 15.3827 57.0319 15.3139C57.5919 15.1469 57.7099 14.6949 57.7885 14.2134C57.9653 13.1915 57.8671 12.15 57.8474 11.1183C57.8474 10.912 57.8572 10.7056 57.7885 10.4993C57.6706 10.1161 57.5526 9.98836 57.1694 9.98836C56.3441 9.98836 55.5187 9.99818 54.6934 9.97853C54.2905 9.96871 53.8876 9.89993 53.475 9.92941C53.0328 9.95888 52.5808 9.98836 52.1387 10.0375C51.7555 10.0866 51.5393 10.4305 51.4803 10.912C51.4116 11.5113 51.4017 12.1205 51.4509 12.7101C51.5 13.2898 51.441 13.8695 51.5295 14.4492C51.6179 15.0584 52.1681 15.3336 52.6496 15.4122C52.7675 15.4318 52.8756 15.4515 52.9935 15.4613C53.1704 15.4711 53.1802 15.6185 53.19 15.7266C53.1998 15.8838 53.0525 15.8347 52.9739 15.8347C51.1364 15.8347 49.2892 15.8347 47.4518 15.8347C47.3732 15.8347 47.2356 15.8838 47.2356 15.7168C47.2454 15.5989 47.2454 15.4908 47.4125 15.4416C47.6778 15.3532 47.9529 15.3532 48.2182 15.2648C48.7881 15.0879 48.8863 14.6458 48.9649 14.1741C48.9944 13.9874 49.0436 10.8235 49.0141 10.7351C48.9649 10.6074 48.9748 10.4895 49.0141 10.3519C49.073 10.175 49.0534 10.0473 48.7881 10.0571C48.0512 10.0964 47.3241 10.0964 46.5871 10.1161C46.3317 10.1259 46.312 10.067 46.4103 9.82132C46.4692 9.67394 46.538 9.5462 46.5969 9.38899C46.6657 9.17282 46.7935 9.05491 47.0784 9.03526C47.776 8.97631 48.3951 8.65206 48.9748 8.28851C49.073 8.22955 49.0534 8.12147 49.0534 8.02321C49.0534 7.34524 49.0239 6.67709 49.0632 5.99911C49.0829 5.72399 49.0337 5.46852 49.0436 5.1934C49.0534 4.89863 49.0436 4.60386 49.0436 4.30908C49.0436 4.00449 49.0436 3.70971 49.0436 3.40512C49.0436 3.36581 49.0239 3.31668 49.0436 3.29703C49.3285 3.06121 49.0043 2.99243 48.9158 2.88435C48.5817 2.47167 48.061 2.19655 47.5107 1.85265Z" fill="#8A8A8A"/>
<path d="M31.4064 1.77403C32.1237 1.75438 32.7526 1.47926 33.293 1.01745C33.4797 0.860235 33.6467 0.958492 33.8727 0.919189C33.4011 1.6856 32.9589 2.4127 32.4971 3.13981C32.3694 3.33632 32.3202 3.60162 32.0353 3.6704C31.8486 3.7097 31.7307 3.69987 31.6423 3.48371C31.4752 3.07103 31.1313 2.85486 30.6892 2.84503C30.2372 2.83521 29.7852 2.82538 29.3332 2.83521C28.9009 2.84503 28.4685 2.77625 28.0362 2.78608C27.8299 2.78608 27.6334 2.83521 27.4368 2.84503C27.2698 2.85486 27.2403 2.99242 27.2305 3.12998C27.201 3.39528 27.26 3.66057 27.3582 3.90621C27.4172 4.06343 27.3975 4.12238 27.2305 4.12238C26.9652 4.12238 26.8866 4.25011 26.9161 4.51541C26.9456 4.86914 26.9063 5.23269 26.9456 5.57659C26.975 5.89101 26.8178 6.01875 26.582 6.13666C26.5329 6.15631 26.4444 6.117 26.4346 6.22509C26.4936 6.30369 26.582 6.27422 26.6508 6.26439C26.9161 6.19561 26.9456 6.32335 26.9357 6.53951C26.9259 7.13888 26.9357 7.72843 26.9357 8.34745C27.1617 8.24919 27.3877 8.17058 27.5646 8.00355C27.9281 7.63999 29.1465 7.70877 29.2841 7.70877C30.2175 7.70877 31.151 7.7186 32.0844 7.70877C32.4087 7.70877 32.7329 7.63999 33.0572 7.61052C33.1063 7.61052 33.1751 7.61052 33.2046 7.63017C33.2439 7.66947 33.2144 7.72843 33.1751 7.77755C32.7329 8.29832 32.2908 8.84856 31.5637 8.99594C31.1903 9.07455 30.7972 9.12368 30.4239 9.12368C29.6673 9.14333 28.9009 9.21211 28.1443 9.19246C27.7906 9.18263 27.4368 9.22194 27.0929 9.23176C26.9947 9.23176 26.9456 9.25141 26.9456 9.36932C26.9652 10.4796 26.8866 11.5899 26.9849 12.7002C27.0635 13.5747 27.5842 14.1348 28.4587 14.3117C29.4216 14.5082 30.3846 14.4984 31.3573 14.4394C32.2416 14.3804 33.1063 14.2724 33.971 14.066C34.7767 13.8695 35.494 13.5354 36.0147 12.8575C36.0933 12.7592 36.1621 12.602 36.3684 12.6315C36.0737 13.2014 35.7985 13.7614 35.5136 14.3117C35.1599 14.9995 34.7963 15.6873 34.4426 16.3751C34.4229 16.4242 34.4033 16.4733 34.364 16.5028C34.2461 16.6109 34.1577 16.8074 34.0103 16.7976C33.8825 16.7878 33.9513 16.5716 33.9022 16.4537C33.6565 15.7855 33.7941 15.874 33.0572 15.874C30.5811 15.8543 28.0952 15.8936 25.6191 15.9231C25.2064 15.9329 24.7937 15.9526 24.381 15.9722C24.2238 15.982 24.1354 15.9526 24.1649 15.7757C24.1551 15.7266 24.0863 6.14648 24.0863 3.73918C24.0863 3.57214 24.0764 3.4051 24.3221 3.43458C24.4105 3.4444 24.4203 3.37562 24.4105 3.30684C24.3417 2.99242 24.2238 2.70747 23.9389 2.53061C23.4672 2.21619 22.9956 1.90176 22.4355 1.75438C22.4355 1.74455 29.9621 1.82316 31.4064 1.77403Z" fill="#8A8A8A"/>
<path d="M41.0648 6.88328C41.0943 6.88328 41.1238 6.90293 41.1533 6.89311C41.5954 6.76537 41.5954 6.76537 41.5856 7.22718C41.5856 7.77742 41.5659 10.3616 41.5758 10.5679C41.5954 11.7175 41.5856 12.8573 41.5856 14.0069C41.5856 14.2035 41.6249 14.3901 41.674 14.5768C41.7919 15.0878 42.1457 15.3531 42.6468 15.4218C42.8138 15.4415 42.9808 15.4611 43.1381 15.5005C43.2068 15.5201 43.3542 15.4808 43.3346 15.6085C43.3149 15.7363 43.2854 15.8837 43.1086 15.8935C43.0496 15.9033 42.9808 15.8935 42.9219 15.8935C41.222 15.8935 39.5222 15.9033 37.8322 15.9033C37.783 15.9033 37.7241 15.9131 37.675 15.9033C37.5669 15.8837 37.3704 16.0016 37.3704 15.8542C37.3704 15.7166 37.5079 15.5692 37.7044 15.5299C37.9599 15.4808 38.2252 15.4317 38.4807 15.3727C38.7165 15.3138 38.8835 15.1762 38.9326 14.9207C38.9621 14.7832 39.0506 14.6554 39.08 14.4982C39.1586 14.0757 39.0309 13.6925 38.8639 13.329C38.7853 13.1718 38.5789 13.1521 38.4315 13.0735C38.2645 12.9949 38.1662 12.9359 38.3038 12.7198C38.5887 12.2481 38.8246 11.747 39.0899 11.2656C39.1488 11.1575 39.1685 11.0592 39.1685 10.9413C39.1685 8.81895 39.1685 6.69659 39.1685 4.56441C39.1685 4.12225 39.0407 3.69974 38.9818 3.26741C38.9621 3.15933 38.8737 3.09055 38.7754 3.09055C38.0287 3.07089 37.2819 2.99229 36.5352 3.09055C35.8081 3.1888 35.7884 3.20846 35.7884 3.96504C35.7884 4.07312 35.8572 4.23033 35.6607 4.25981C35.5035 4.28929 35.3659 4.28929 35.248 4.12225C34.7272 3.4148 34.1966 2.72699 33.666 2.02937C33.6169 1.97041 33.5678 1.90163 33.5874 1.84268C33.6169 1.78372 33.6955 1.76407 33.7741 1.7739C33.8233 1.7739 33.8822 1.7739 33.9313 1.7739C38.235 1.7739 42.5387 1.86233 46.8424 1.83285C46.9013 1.83285 46.9898 1.78372 47.0291 1.87215C47.0585 1.94093 46.9996 1.99006 46.9603 2.03919C46.4002 2.7663 45.8401 3.4934 45.2801 4.22051C45.2408 4.26963 45.2211 4.34824 45.1523 4.32859C45.0639 4.30894 45.113 4.23033 45.113 4.17138C45.0934 3.90608 45.1523 3.63096 44.9656 3.38532C44.8674 3.24776 44.7397 3.1888 44.6021 3.16915C43.708 3.06107 42.8138 3.12985 41.9197 3.1102C41.8116 3.1102 41.7723 3.15933 41.7526 3.26741C41.6937 3.65061 41.5856 4.01417 41.5954 4.40719C41.5954 5.00656 41.5758 5.60593 41.5954 6.19548C41.6052 6.44112 41.5365 6.58851 41.3105 6.69659C41.222 6.73589 41.114 6.7752 41.0648 6.88328Z" fill="#8A8A8A"/>
</svg>
