<svg width="100" height="18" viewBox="0 0 100 18" fill="none" xmlns="http://www.w3.org/2000/svg">
<path d="M13.5332 0.607573C13.6 0.59485 13.6382 0.580535 13.6763 0.581331C16.377 0.606778 19.0776 0.61155 21.7775 0.670398C22.9075 0.69505 24.0105 0.953503 25.0507 1.41395C26.5433 2.07559 27.3847 3.2263 27.5883 4.84382C27.7219 5.90467 27.7084 6.95837 27.3752 7.98264C26.9044 9.42839 25.8252 10.2356 24.4391 10.7055C24.3262 10.7437 24.2125 10.7795 24.1012 10.8201C24.0797 10.828 24.0654 10.8527 24.0208 10.8948C25.3091 12.8678 26.6006 14.8456 27.9255 16.875C27.7807 16.8965 27.6853 16.9219 27.5907 16.9219C26.1736 16.9243 24.7564 16.9323 23.3401 16.9124C23.1803 16.91 22.9624 16.7891 22.8733 16.6563C21.764 14.9808 20.6681 13.2964 19.5858 11.6034C19.4363 11.3688 19.278 11.2829 19.0116 11.298C18.6569 11.3179 18.3007 11.3028 17.8999 11.3028C17.8911 11.4833 17.8776 11.636 17.8776 11.7879C17.876 13.3609 17.8681 14.9346 17.884 16.5076C17.8871 16.8353 17.7941 16.9363 17.4617 16.9323C16.1655 16.9148 14.8692 16.9251 13.534 16.9251V0.607573H13.5332ZM17.8983 7.68283C18.9456 7.68283 19.9603 7.70351 20.9727 7.6725C21.3759 7.66057 21.7878 7.5723 22.1751 7.45221C22.9497 7.21285 23.2852 6.71264 23.2749 5.91183C23.2646 5.11659 22.9099 4.62831 22.125 4.40803C20.7421 4.01995 19.3257 4.1798 17.8975 4.1456V7.68204L17.8983 7.68283Z" fill="#DE359C"/>
<path d="M59.4642 3.64622C58.4224 4.44464 57.3966 5.23114 56.3373 6.04308C55.2447 4.74127 53.8744 4.13132 52.1917 4.32615C51.0028 4.46373 50.0398 5.03948 49.2859 5.95162C47.7988 7.75046 48.0326 10.4431 49.7599 12.0503C51.2939 13.4778 54.2713 13.877 56.3429 11.4817C57.3751 12.2658 58.4105 13.0515 59.4443 13.8372C57.9365 16.0424 54.6315 17.8246 50.8438 16.9737C47.1761 16.1498 44.5367 12.9824 44.3347 9.18428C44.1343 5.41961 46.4652 1.94679 50.008 0.756313C53.7591 -0.504144 57.4944 0.9758 59.4642 3.64702V3.64622Z" fill="#DE359C"/>
<path d="M87.0604 16.9005H71.2383C73.8697 11.2781 76.4821 5.69711 79.1485 0C81.8078 5.67961 84.4226 11.2662 87.0604 16.8997V16.9005ZM81.2615 13.6002C80.5506 12.0837 79.8714 10.6364 79.1478 9.09279C78.4209 10.6483 77.741 12.1044 77.042 13.6002H81.2615Z" fill="#DE359C"/>
<path d="M44.8065 16.9013H28.9844C31.6206 11.271 34.2354 5.68359 36.8962 0C39.5595 5.69075 42.1711 11.271 44.8065 16.9013ZM39.0068 13.6026C38.299 12.0908 37.6199 10.6395 36.8962 9.09438C36.1702 10.6443 35.4863 12.1052 34.7849 13.6026H39.0068Z" fill="#DE359C"/>
<path d="M4.38655 4.1352V7.70981H10.0463V11.2948H4.39609C4.38735 11.4808 4.37462 11.6327 4.37462 11.7846C4.37303 13.3711 4.37462 14.9576 4.37303 16.5441C4.37303 16.7223 4.42234 16.9274 4.12094 16.9259C2.75869 16.9203 1.39565 16.9235 0 16.9235V0.597168H11.6718V4.1352H4.38655Z" fill="#DE359C"/>
<path d="M59.8457 0.599609H72.6133V4.13366H68.4295C68.4295 4.3444 68.4295 4.51061 68.4295 4.67681C68.4295 8.59019 68.4295 12.5036 68.4295 16.417C68.4295 16.7552 68.2554 16.9246 67.9071 16.9251C66.7683 16.9251 65.6287 16.9108 64.4907 16.9331C64.1297 16.9402 64.0207 16.8432 64.0223 16.4734C64.035 12.5338 64.0303 8.59417 64.0303 4.65375C64.0303 4.49868 64.0303 4.3436 64.0303 4.14479H59.8465V0.599609H59.8457Z" fill="#DE359C"/>
<path d="M88.8545 16.8916V0.613037H93.2068V13.3313H99.9998V16.8908H88.8545V16.8916Z" fill="#DE359C"/>
</svg>
