<svg width="44" height="38" viewBox="0 0 44 38" fill="none" xmlns="http://www.w3.org/2000/svg">
<g filter="url(#filter0_d_2012_26673)">
<circle cx="22" cy="18" r="14.0625" transform="rotate(-90 22 18)" fill="black" fill-opacity="0.3" shape-rendering="crispEdges"/>
</g>
<circle cx="22" cy="18" r="15.625" transform="rotate(-90 22 18)" fill="black" fill-opacity="0.4"/>
<g filter="url(#filter1_d_2012_26673)">
<path d="M22 25.8125L12.625 12.5312L22 18.434L31.375 12.5313L22 25.8125Z" fill="url(#paint0_radial_2012_26673)"/>
</g>
<g filter="url(#filter2_i_2012_26673)">
<path fill-rule="evenodd" clip-rule="evenodd" d="M36.0625 17.9998C36.0625 10.2333 29.7665 3.93726 22 3.93726C14.2335 3.93726 7.9375 10.2333 7.9375 17.9998C7.9375 25.7663 14.2335 32.0623 22 32.0623C29.7665 32.0623 36.0625 25.7663 36.0625 17.9998ZM35.2812 17.9998C35.2812 10.6648 29.335 4.71854 22 4.71854C14.665 4.71854 8.71874 10.6648 8.71874 17.9998C8.71874 25.3348 14.665 31.281 22 31.281C29.335 31.281 35.2812 25.3348 35.2812 17.9998Z" fill="url(#paint1_diamond_2012_26673)"/>
</g>
<mask id="mask0_2012_26673" style="mask-type:alpha" maskUnits="userSpaceOnUse" x="7" y="3" width="30" height="30">
<path fill-rule="evenodd" clip-rule="evenodd" d="M36.0625 18C36.0625 10.2335 29.7665 3.9375 22 3.9375C14.2335 3.9375 7.9375 10.2335 7.9375 18C7.9375 25.7665 14.2335 32.0625 22 32.0625C29.7665 32.0625 36.0625 25.7665 36.0625 18ZM35.2812 18C35.2812 10.665 29.335 4.71875 22 4.71875C14.665 4.71875 8.71875 10.665 8.71875 18C8.71875 25.335 14.665 31.2812 22 31.2812C29.335 31.2812 35.2812 25.335 35.2812 18Z" fill="url(#paint2_diamond_2012_26673)"/>
</mask>
<g mask="url(#mask0_2012_26673)">
<g filter="url(#filter3_d_2012_26673)">
<path d="M33.9207 20.772C33.9207 21.0491 35.3068 21.3265 36.1385 21.0492L36.6929 19.3859C36.3233 19.2935 33.9207 20.4949 33.9207 20.772Z" fill="#4A4A4A"/>
<path d="M32.8119 10.7922L33.9207 10.2377L31.4258 7.46555V9.40608L32.8119 10.7922Z" fill="#4A4A4A"/>
</g>
<g filter="url(#filter4_d_2012_26673)">
<path d="M19.7827 3.86177C20.8916 3.86177 21.6309 5.80226 21.4461 6.3567L17.0106 6.63391V4.69339C17.7498 4.69339 18.6739 3.86177 19.7827 3.86177Z" fill="#4A4A4A"/>
<path d="M16.4561 7.18835C17.1215 6.96657 16.3637 5.61745 15.9017 4.97061L13.4067 6.3567C14.146 6.72632 15.7908 7.41012 16.4561 7.18835Z" fill="#4A4A4A"/>
<path d="M25.0499 30.1974C25.5119 30.567 26.436 31.3617 26.436 31.5835L24.7727 32.1379L25.0499 30.1974Z" fill="#4A4A4A"/>
<path d="M18.6739 30.1974C19.7827 30.4746 19.7827 32.1379 20.06 32.1379C19.4131 32.2303 17.8422 32.2488 16.7334 31.5835C15.6245 30.9182 14.9776 30.1974 14.7928 29.9202C15.7169 29.9202 17.7868 29.9756 18.6739 30.1974Z" fill="#4A4A4A"/>
</g>
<g filter="url(#filter5_f_2012_26673)">
<circle cx="35.3066" cy="14.1189" r="2.21774" transform="rotate(-90 35.3066 14.1189)" fill="#5B5B5B" fill-opacity="0.7"/>
</g>
<g filter="url(#filter6_f_2012_26673)">
<circle cx="20.6143" cy="3.30754" r="3.0494" transform="rotate(-90 20.6143 3.30754)" fill="#5B5B5B" fill-opacity="0.7"/>
</g>
<g filter="url(#filter7_f_2012_26673)">
<ellipse cx="10.0797" cy="14.3962" rx="3.0494" ry="3.0494" transform="rotate(-90 10.0797 14.3962)" fill="#5B5B5B" fill-opacity="0.7"/>
</g>
<g filter="url(#filter8_f_2012_26673)">
<ellipse cx="7.58493" cy="22.4353" rx="2.21774" ry="2.21774" transform="rotate(-90 7.58493 22.4353)" fill="#5B5B5B" fill-opacity="0.7"/>
</g>
<g filter="url(#filter9_f_2012_26673)">
<ellipse cx="26.4355" cy="29.6431" rx="3.32661" ry="3.32661" transform="rotate(-90 26.4355 29.6431)" fill="#5B5B5B" fill-opacity="0.7"/>
</g>
</g>
<defs>
<filter id="filter0_d_2012_26673" x="5.9375" y="1.9375" width="32.125" height="32.125" filterUnits="userSpaceOnUse" color-interpolation-filters="sRGB">
<feFlood flood-opacity="0" result="BackgroundImageFix"/>
<feColorMatrix in="SourceAlpha" type="matrix" values="0 0 0 0 0 0 0 0 0 0 0 0 0 0 0 0 0 0 127 0" result="hardAlpha"/>
<feOffset/>
<feGaussianBlur stdDeviation="1"/>
<feComposite in2="hardAlpha" operator="out"/>
<feColorMatrix type="matrix" values="0 0 0 0 0 0 0 0 0 0 0 0 0 0 0 0 0 0 0.75 0"/>
<feBlend mode="normal" in2="BackgroundImageFix" result="effect1_dropShadow_2012_26673"/>
<feBlend mode="normal" in="SourceGraphic" in2="effect1_dropShadow_2012_26673" result="shape"/>
</filter>
<filter id="filter1_d_2012_26673" x="0.625" y="0.53125" width="42.75" height="37.2812" filterUnits="userSpaceOnUse" color-interpolation-filters="sRGB">
<feFlood flood-opacity="0" result="BackgroundImageFix"/>
<feColorMatrix in="SourceAlpha" type="matrix" values="0 0 0 0 0 0 0 0 0 0 0 0 0 0 0 0 0 0 127 0" result="hardAlpha"/>
<feOffset/>
<feGaussianBlur stdDeviation="6"/>
<feComposite in2="hardAlpha" operator="out"/>
<feColorMatrix type="matrix" values="0 0 0 0 0 0 0 0 0 0 0 0 0 0 0 0 0 0 1 0"/>
<feBlend mode="normal" in2="BackgroundImageFix" result="effect1_dropShadow_2012_26673"/>
<feBlend mode="normal" in="SourceGraphic" in2="effect1_dropShadow_2012_26673" result="shape"/>
</filter>
<filter id="filter2_i_2012_26673" x="7.9375" y="2.93726" width="28.125" height="29.125" filterUnits="userSpaceOnUse" color-interpolation-filters="sRGB">
<feFlood flood-opacity="0" result="BackgroundImageFix"/>
<feBlend mode="normal" in="SourceGraphic" in2="BackgroundImageFix" result="shape"/>
<feColorMatrix in="SourceAlpha" type="matrix" values="0 0 0 0 0 0 0 0 0 0 0 0 0 0 0 0 0 0 127 0" result="hardAlpha"/>
<feOffset dy="-1"/>
<feGaussianBlur stdDeviation="0.5"/>
<feComposite in2="hardAlpha" operator="arithmetic" k2="-1" k3="1"/>
<feColorMatrix type="matrix" values="0 0 0 0 0.2 0 0 0 0 0.2 0 0 0 0 0.2 0 0 0 0.25 0"/>
<feBlend mode="normal" in2="shape" result="effect1_innerShadow_2012_26673"/>
</filter>
<filter id="filter3_d_2012_26673" x="30.4258" y="6.46558" width="7.26709" height="15.6985" filterUnits="userSpaceOnUse" color-interpolation-filters="sRGB">
<feFlood flood-opacity="0" result="BackgroundImageFix"/>
<feColorMatrix in="SourceAlpha" type="matrix" values="0 0 0 0 0 0 0 0 0 0 0 0 0 0 0 0 0 0 127 0" result="hardAlpha"/>
<feOffset/>
<feGaussianBlur stdDeviation="0.5"/>
<feComposite in2="hardAlpha" operator="out"/>
<feColorMatrix type="matrix" values="0 0 0 0 0.290196 0 0 0 0 0.290196 0 0 0 0 0.290196 0 0 0 1 0"/>
<feBlend mode="normal" in2="BackgroundImageFix" result="effect1_dropShadow_2012_26673"/>
<feBlend mode="normal" in="SourceGraphic" in2="effect1_dropShadow_2012_26673" result="shape"/>
</filter>
<filter id="filter4_d_2012_26673" x="12.4067" y="2.86182" width="15.0293" height="30.323" filterUnits="userSpaceOnUse" color-interpolation-filters="sRGB">
<feFlood flood-opacity="0" result="BackgroundImageFix"/>
<feColorMatrix in="SourceAlpha" type="matrix" values="0 0 0 0 0 0 0 0 0 0 0 0 0 0 0 0 0 0 127 0" result="hardAlpha"/>
<feOffset/>
<feGaussianBlur stdDeviation="0.5"/>
<feComposite in2="hardAlpha" operator="out"/>
<feColorMatrix type="matrix" values="0 0 0 0 0.290196 0 0 0 0 0.290196 0 0 0 0 0.290196 0 0 0 1 0"/>
<feBlend mode="normal" in2="BackgroundImageFix" result="effect1_dropShadow_2012_26673"/>
<feBlend mode="normal" in="SourceGraphic" in2="effect1_dropShadow_2012_26673" result="shape"/>
</filter>
<filter id="filter5_f_2012_26673" x="32.0889" y="10.9011" width="6.43555" height="6.43555" filterUnits="userSpaceOnUse" color-interpolation-filters="sRGB">
<feFlood flood-opacity="0" result="BackgroundImageFix"/>
<feBlend mode="normal" in="SourceGraphic" in2="BackgroundImageFix" result="shape"/>
<feGaussianBlur stdDeviation="0.5" result="effect1_foregroundBlur_2012_26673"/>
</filter>
<filter id="filter6_f_2012_26673" x="16.5649" y="-0.741943" width="8.09863" height="8.09888" filterUnits="userSpaceOnUse" color-interpolation-filters="sRGB">
<feFlood flood-opacity="0" result="BackgroundImageFix"/>
<feBlend mode="normal" in="SourceGraphic" in2="BackgroundImageFix" result="shape"/>
<feGaussianBlur stdDeviation="0.5" result="effect1_foregroundBlur_2012_26673"/>
</filter>
<filter id="filter7_f_2012_26673" x="6.03027" y="10.3467" width="8.09863" height="8.09888" filterUnits="userSpaceOnUse" color-interpolation-filters="sRGB">
<feFlood flood-opacity="0" result="BackgroundImageFix"/>
<feBlend mode="normal" in="SourceGraphic" in2="BackgroundImageFix" result="shape"/>
<feGaussianBlur stdDeviation="0.5" result="effect1_foregroundBlur_2012_26673"/>
</filter>
<filter id="filter8_f_2012_26673" x="4.36719" y="19.2175" width="6.43555" height="6.43555" filterUnits="userSpaceOnUse" color-interpolation-filters="sRGB">
<feFlood flood-opacity="0" result="BackgroundImageFix"/>
<feBlend mode="normal" in="SourceGraphic" in2="BackgroundImageFix" result="shape"/>
<feGaussianBlur stdDeviation="0.5" result="effect1_foregroundBlur_2012_26673"/>
</filter>
<filter id="filter9_f_2012_26673" x="22.1089" y="25.3164" width="8.65332" height="8.65332" filterUnits="userSpaceOnUse" color-interpolation-filters="sRGB">
<feFlood flood-opacity="0" result="BackgroundImageFix"/>
<feBlend mode="normal" in="SourceGraphic" in2="BackgroundImageFix" result="shape"/>
<feGaussianBlur stdDeviation="0.5" result="effect1_foregroundBlur_2012_26673"/>
</filter>
<radialGradient id="paint0_radial_2012_26673" cx="0" cy="0" r="1" gradientUnits="userSpaceOnUse" gradientTransform="translate(22.4372 19.1756) scale(12.0395 8.52801)">
<stop offset="0.239583" stop-color="#BDBDBD"/>
<stop offset="1" stop-color="#8A8A8A"/>
</radialGradient>
<radialGradient id="paint1_diamond_2012_26673" cx="0" cy="0" r="1" gradientUnits="userSpaceOnUse" gradientTransform="translate(22 17.9996) rotate(59.2811) scale(22.2501)">
<stop offset="0.713209" stop-color="#3A3A3A"/>
<stop offset="1" stop-color="#656464"/>
</radialGradient>
<radialGradient id="paint2_diamond_2012_26673" cx="0" cy="0" r="1" gradientUnits="userSpaceOnUse" gradientTransform="translate(22 17.9998) rotate(59.2811) scale(22.2501)">
<stop offset="0.713209" stop-color="#3A3A3A"/>
<stop offset="1" stop-color="#656464"/>
</radialGradient>
</defs>
</svg>
