<svg width="42" height="48" viewBox="0 0 42 48" fill="none" xmlns="http://www.w3.org/2000/svg">
<g filter="url(#filter0_d_1079_35464)">
<circle cx="22" cy="24" r="18" fill="black" fill-opacity="0.3" shape-rendering="crispEdges"/>
</g>
<circle cx="22" cy="24" r="20" fill="black" fill-opacity="0.4"/>
<g filter="url(#filter1_d_1079_35464)">
<path d="M12 24L29 12L21.4444 24L29 36L12 24Z" fill="url(#paint0_radial_1079_35464)"/>
</g>
<g filter="url(#filter2_i_1079_35464)">
<path fill-rule="evenodd" clip-rule="evenodd" d="M22.0002 42C31.9414 42 40.0002 33.9411 40.0002 24C40.0002 14.0589 31.9414 6 22.0002 6C12.0591 6 4.00024 14.0589 4.00024 24C4.00024 33.9411 12.0591 42 22.0002 42ZM22.0002 41C31.3891 41 39.0002 33.3888 39.0002 24C39.0002 14.6112 31.3891 7 22.0002 7C12.6114 7 5.00024 14.6112 5.00024 24C5.00024 33.3888 12.6114 41 22.0002 41Z" fill="url(#paint1_diamond_1079_35464)"/>
</g>
<mask id="mask0_1079_35464" style="mask-type:alpha" maskUnits="userSpaceOnUse" x="4" y="6" width="36" height="36">
<path fill-rule="evenodd" clip-rule="evenodd" d="M22 42C31.9411 42 40 33.9411 40 24C40 14.0589 31.9411 6 22 6C12.0589 6 4 14.0589 4 24C4 33.9411 12.0589 42 22 42ZM22 41C31.3888 41 39 33.3888 39 24C39 14.6112 31.3888 7 22 7C12.6112 7 5 14.6112 5 24C5 33.3888 12.6112 41 22 41Z" fill="url(#paint2_diamond_1079_35464)"/>
</mask>
<g mask="url(#mask0_1079_35464)">
<g filter="url(#filter3_d_1079_35464)">
<path d="M18.4518 39.258C18.0971 39.258 17.742 41.0322 18.0969 42.0967L20.226 42.8064C20.3443 42.3333 18.8065 39.258 18.4518 39.258Z" fill="#4A4A4A"/>
<path d="M31.226 37.8386L31.9357 39.258L35.484 36.0645H33.0002L31.226 37.8386Z" fill="#4A4A4A"/>
</g>
<g filter="url(#filter4_d_1079_35464)">
<path d="M40.097 21.1613C40.097 22.5806 37.6132 23.5269 36.9035 23.2903L36.5487 17.6129H39.0325C39.0325 18.5591 40.097 19.7419 40.097 21.1613Z" fill="#4A4A4A"/>
<path d="M35.839 16.9032C36.1229 17.7548 37.8497 16.7849 38.6777 16.1935L36.9035 13C36.4304 13.9462 35.5551 16.0516 35.839 16.9032Z" fill="#4A4A4A"/>
<path d="M6.38738 27.9032C5.91426 28.4946 4.89706 29.6774 4.61319 29.6774L3.90351 27.5484L6.38738 27.9032Z" fill="#4A4A4A"/>
<path d="M6.38738 19.7419C6.03254 21.1613 3.90351 21.1613 3.90351 21.5161C3.78523 20.6882 3.76157 18.6774 4.61319 17.2581C5.4648 15.8387 6.38738 15.0108 6.74222 14.7742C6.74222 15.957 6.67125 18.6065 6.38738 19.7419Z" fill="#4A4A4A"/>
</g>
<g filter="url(#filter5_f_1079_35464)">
<circle cx="26.9679" cy="41.0321" r="2.83871" fill="#5B5B5B" fill-opacity="0.7"/>
</g>
<g filter="url(#filter6_f_1079_35464)">
<circle cx="40.8065" cy="22.2265" r="3.90323" fill="#5B5B5B" fill-opacity="0.7"/>
</g>
<g filter="url(#filter7_f_1079_35464)">
<circle cx="26.6129" cy="8.74209" r="3.90323" fill="#5B5B5B" fill-opacity="0.7"/>
</g>
<g filter="url(#filter8_f_1079_35464)">
<circle cx="16.3228" cy="5.54867" r="2.83871" fill="#5B5B5B" fill-opacity="0.7"/>
</g>
<g filter="url(#filter9_f_1079_35464)">
<circle cx="7.09693" cy="29.678" r="4.25806" fill="#5B5B5B" fill-opacity="0.7"/>
</g>
</g>
<defs>
<filter id="filter0_d_1079_35464" x="2" y="4" width="40" height="40" filterUnits="userSpaceOnUse" color-interpolation-filters="sRGB">
<feFlood flood-opacity="0" result="BackgroundImageFix"/>
<feColorMatrix in="SourceAlpha" type="matrix" values="0 0 0 0 0 0 0 0 0 0 0 0 0 0 0 0 0 0 127 0" result="hardAlpha"/>
<feOffset/>
<feGaussianBlur stdDeviation="1"/>
<feComposite in2="hardAlpha" operator="out"/>
<feColorMatrix type="matrix" values="0 0 0 0 0 0 0 0 0 0 0 0 0 0 0 0 0 0 0.75 0"/>
<feBlend mode="normal" in2="BackgroundImageFix" result="effect1_dropShadow_1079_35464"/>
<feBlend mode="normal" in="SourceGraphic" in2="effect1_dropShadow_1079_35464" result="shape"/>
</filter>
<filter id="filter1_d_1079_35464" x="0" y="0" width="41" height="48" filterUnits="userSpaceOnUse" color-interpolation-filters="sRGB">
<feFlood flood-opacity="0" result="BackgroundImageFix"/>
<feColorMatrix in="SourceAlpha" type="matrix" values="0 0 0 0 0 0 0 0 0 0 0 0 0 0 0 0 0 0 127 0" result="hardAlpha"/>
<feOffset/>
<feGaussianBlur stdDeviation="6"/>
<feComposite in2="hardAlpha" operator="out"/>
<feColorMatrix type="matrix" values="0 0 0 0 0 0 0 0 0 0 0 0 0 0 0 0 0 0 1 0"/>
<feBlend mode="normal" in2="BackgroundImageFix" result="effect1_dropShadow_1079_35464"/>
<feBlend mode="normal" in="SourceGraphic" in2="effect1_dropShadow_1079_35464" result="shape"/>
</filter>
<filter id="filter2_i_1079_35464" x="4.00024" y="5" width="36" height="37" filterUnits="userSpaceOnUse" color-interpolation-filters="sRGB">
<feFlood flood-opacity="0" result="BackgroundImageFix"/>
<feBlend mode="normal" in="SourceGraphic" in2="BackgroundImageFix" result="shape"/>
<feColorMatrix in="SourceAlpha" type="matrix" values="0 0 0 0 0 0 0 0 0 0 0 0 0 0 0 0 0 0 127 0" result="hardAlpha"/>
<feOffset dy="-1"/>
<feGaussianBlur stdDeviation="0.5"/>
<feComposite in2="hardAlpha" operator="arithmetic" k2="-1" k3="1"/>
<feColorMatrix type="matrix" values="0 0 0 0 0.2 0 0 0 0 0.2 0 0 0 0 0.2 0 0 0 0.25 0"/>
<feBlend mode="normal" in2="shape" result="effect1_innerShadow_1079_35464"/>
</filter>
<filter id="filter3_d_1079_35464" x="16.95" y="35.0645" width="19.5342" height="8.74219" filterUnits="userSpaceOnUse" color-interpolation-filters="sRGB">
<feFlood flood-opacity="0" result="BackgroundImageFix"/>
<feColorMatrix in="SourceAlpha" type="matrix" values="0 0 0 0 0 0 0 0 0 0 0 0 0 0 0 0 0 0 127 0" result="hardAlpha"/>
<feOffset/>
<feGaussianBlur stdDeviation="0.5"/>
<feComposite in2="hardAlpha" operator="out"/>
<feColorMatrix type="matrix" values="0 0 0 0 0.290196 0 0 0 0 0.290196 0 0 0 0 0.290196 0 0 0 1 0"/>
<feBlend mode="normal" in2="BackgroundImageFix" result="effect1_dropShadow_1079_35464"/>
<feBlend mode="normal" in="SourceGraphic" in2="effect1_dropShadow_1079_35464" result="shape"/>
</filter>
<filter id="filter4_d_1079_35464" x="2.84351" y="12" width="38.2534" height="18.6777" filterUnits="userSpaceOnUse" color-interpolation-filters="sRGB">
<feFlood flood-opacity="0" result="BackgroundImageFix"/>
<feColorMatrix in="SourceAlpha" type="matrix" values="0 0 0 0 0 0 0 0 0 0 0 0 0 0 0 0 0 0 127 0" result="hardAlpha"/>
<feOffset/>
<feGaussianBlur stdDeviation="0.5"/>
<feComposite in2="hardAlpha" operator="out"/>
<feColorMatrix type="matrix" values="0 0 0 0 0.290196 0 0 0 0 0.290196 0 0 0 0 0.290196 0 0 0 1 0"/>
<feBlend mode="normal" in2="BackgroundImageFix" result="effect1_dropShadow_1079_35464"/>
<feBlend mode="normal" in="SourceGraphic" in2="effect1_dropShadow_1079_35464" result="shape"/>
</filter>
<filter id="filter5_f_1079_35464" x="23.1292" y="37.1934" width="7.67749" height="7.67773" filterUnits="userSpaceOnUse" color-interpolation-filters="sRGB">
<feFlood flood-opacity="0" result="BackgroundImageFix"/>
<feBlend mode="normal" in="SourceGraphic" in2="BackgroundImageFix" result="shape"/>
<feGaussianBlur stdDeviation="0.5" result="effect1_foregroundBlur_1079_35464"/>
</filter>
<filter id="filter6_f_1079_35464" x="35.9033" y="17.3232" width="9.8064" height="9.80664" filterUnits="userSpaceOnUse" color-interpolation-filters="sRGB">
<feFlood flood-opacity="0" result="BackgroundImageFix"/>
<feBlend mode="normal" in="SourceGraphic" in2="BackgroundImageFix" result="shape"/>
<feGaussianBlur stdDeviation="0.5" result="effect1_foregroundBlur_1079_35464"/>
</filter>
<filter id="filter7_f_1079_35464" x="21.7097" y="3.83887" width="9.8064" height="9.80664" filterUnits="userSpaceOnUse" color-interpolation-filters="sRGB">
<feFlood flood-opacity="0" result="BackgroundImageFix"/>
<feBlend mode="normal" in="SourceGraphic" in2="BackgroundImageFix" result="shape"/>
<feGaussianBlur stdDeviation="0.5" result="effect1_foregroundBlur_1079_35464"/>
</filter>
<filter id="filter8_f_1079_35464" x="12.4841" y="1.70996" width="7.67749" height="7.67773" filterUnits="userSpaceOnUse" color-interpolation-filters="sRGB">
<feFlood flood-opacity="0" result="BackgroundImageFix"/>
<feBlend mode="normal" in="SourceGraphic" in2="BackgroundImageFix" result="shape"/>
<feGaussianBlur stdDeviation="0.5" result="effect1_foregroundBlur_1079_35464"/>
</filter>
<filter id="filter9_f_1079_35464" x="1.83887" y="24.4199" width="10.5161" height="10.5166" filterUnits="userSpaceOnUse" color-interpolation-filters="sRGB">
<feFlood flood-opacity="0" result="BackgroundImageFix"/>
<feBlend mode="normal" in="SourceGraphic" in2="BackgroundImageFix" result="shape"/>
<feGaussianBlur stdDeviation="0.5" result="effect1_foregroundBlur_1079_35464"/>
</filter>
<radialGradient id="paint0_radial_1079_35464" cx="0" cy="0" r="1" gradientUnits="userSpaceOnUse" gradientTransform="translate(20.4953 24.5596) rotate(90) scale(15.4106 10.9159)">
<stop offset="0.239583" stop-color="#BDBDBD"/>
<stop offset="1" stop-color="#8A8A8A"/>
</radialGradient>
<radialGradient id="paint1_diamond_1079_35464" cx="0" cy="0" r="1" gradientUnits="userSpaceOnUse" gradientTransform="translate(22.0005 24) rotate(149.281) scale(28.4801)">
<stop offset="0.713209" stop-color="#3A3A3A"/>
<stop offset="1" stop-color="#656464"/>
</radialGradient>
<radialGradient id="paint2_diamond_1079_35464" cx="0" cy="0" r="1" gradientUnits="userSpaceOnUse" gradientTransform="translate(22.0002 24) rotate(149.281) scale(28.4801)">
<stop offset="0.713209" stop-color="#3A3A3A"/>
<stop offset="1" stop-color="#656464"/>
</radialGradient>
</defs>
</svg>
