<svg width="54" height="46" viewBox="0 0 54 46" fill="none" xmlns="http://www.w3.org/2000/svg">
<g filter="url(#filter0_d_353_29434)">
<path d="M40.8644 22.0566C40.8644 22.2058 40.8644 22.3286 40.8644 22.4506C40.8644 24.8858 40.8651 27.321 40.8644 29.7562C40.8636 31.178 40.0416 32 38.6206 32C30.8381 32 23.0549 32 15.2724 32C13.8506 32 13.0256 31.178 13.0248 29.7599C13.0233 27.3248 13.0248 24.8896 13.0248 22.4544C13.0248 22.3316 13.0248 22.208 13.0248 22.0491C13.1906 22.0415 13.3247 22.0295 13.4588 22.0295C16.8856 22.0287 20.3123 22.031 23.7398 22.0234C23.9899 22.0234 24.1519 22.095 24.3071 22.2969C24.8971 23.0617 25.5051 23.8137 26.1124 24.5649C26.5954 25.1631 27.2923 25.1654 27.7753 24.5679C28.3909 23.8069 28.9891 23.0316 29.6167 22.2811C29.726 22.1508 29.9415 22.0393 30.1088 22.0385C33.5732 22.0249 37.0376 22.028 40.5027 22.0295C40.612 22.0295 40.7212 22.0453 40.8651 22.0558L40.8644 22.0566Z" fill="#FEE190"/>
<path d="M21.9858 20.0345V12.0847H31.8855V20.0337C31.233 20.0337 30.5836 20.0442 29.9348 20.0232C29.8263 20.0194 29.699 19.8988 29.6191 19.8001C29.0171 19.0602 28.4241 18.3128 27.8289 17.5669C27.2879 16.8888 26.6023 16.8873 26.0636 17.5616C25.4683 18.3075 24.8799 19.0587 24.2696 19.7918C24.1671 19.9147 23.9689 20.0164 23.81 20.0232C23.2117 20.0503 22.6112 20.0337 21.9858 20.0337V20.0345Z" fill="#FEE190"/>
<path d="M19.9846 12.0846V20.0057H13.0701C12.8207 17.3905 13.1538 14.9817 15.4337 13.2578C16.7734 12.2451 18.3036 11.9528 19.9846 12.0846Z" fill="#FEE190"/>
<path d="M33.9099 20.011V12.1117C38.0765 11.2776 41.5372 15.2333 40.8229 20.011H33.9099V20.011Z" fill="#FEE190"/>
</g>
<defs>
<filter id="filter0_d_353_29434" x="0" y="0" width="53.9169" height="46" filterUnits="userSpaceOnUse" color-interpolation-filters="sRGB">
<feFlood flood-opacity="0" result="BackgroundImageFix"/>
<feColorMatrix in="SourceAlpha" type="matrix" values="0 0 0 0 0 0 0 0 0 0 0 0 0 0 0 0 0 0 127 0" result="hardAlpha"/>
<feOffset dy="1"/>
<feGaussianBlur stdDeviation="6.5"/>
<feComposite in2="hardAlpha" operator="out"/>
<feColorMatrix type="matrix" values="0 0 0 0 1 0 0 0 0 0.497333 0 0 0 0 0.0333334 0 0 0 0.64 0"/>
<feBlend mode="normal" in2="BackgroundImageFix" result="effect1_dropShadow_353_29434"/>
<feBlend mode="normal" in="SourceGraphic" in2="effect1_dropShadow_353_29434" result="shape"/>
</filter>
</defs>
</svg>
