<svg width="15" height="15" viewBox="0 0 15 15" fill="none" xmlns="http://www.w3.org/2000/svg">
<path d="M9.00848 7.48662C10.2115 8.68961 11.3771 9.85604 12.5427 11.0217C13.26 11.7397 13.9837 12.4513 14.6928 13.1767C15.0283 13.5203 15.0884 14.0661 14.8675 14.4536C14.6335 14.8646 14.1649 15.1001 13.6897 14.9588C13.4338 14.8825 13.1869 14.6989 12.9927 14.5064C11.2829 12.8103 9.58521 11.1013 7.88591 9.39467C7.77138 9.28014 7.67471 9.14773 7.45784 8.89024C7.29294 9.12012 7.18978 9.31425 7.04113 9.46371C5.35483 11.1638 3.66122 12.8582 1.96842 14.5527C1.50624 15.0149 0.952258 15.1245 0.509563 14.8475C-0.105335 14.4633 -0.17844 13.66 0.370663 13.106C1.57122 11.8957 2.78233 10.6951 3.98857 9.49052C4.63921 8.84069 5.29148 8.19168 5.98192 7.50286C5.83652 7.35421 5.70005 7.21288 5.56115 7.07398C3.85617 5.37305 2.15038 3.67213 0.445393 1.97121C-0.0265436 1.50009 -0.130516 0.92174 0.171653 0.478233C0.572109 -0.10986 1.34703 -0.167532 1.89045 0.371825C3.09181 1.56263 4.28262 2.764 5.47749 3.9613C6.13625 4.62169 6.79501 5.2837 7.48789 5.97983C7.75513 5.71909 8.01425 5.47053 8.26768 5.21709C9.84514 3.6372 11.4169 2.05163 13.0033 0.480671C13.1966 0.288972 13.4484 0.109457 13.7051 0.0387884C14.1909 -0.0952383 14.6498 0.145197 14.8748 0.560274C15.1006 0.977788 15.0121 1.50658 14.6246 1.89486C13.0382 3.48531 11.447 5.07088 9.85651 6.65646C9.58846 6.9237 9.31553 7.18607 9.00848 7.48743V7.48662Z" fill="#8A8A8A"/>
</svg>
