<svg width="32" height="32" viewBox="0 0 32 32" fill="none" xmlns="http://www.w3.org/2000/svg">
<g filter="url(#filter0_i_1466_45067)">
<circle cx="16" cy="16.4902" r="15" fill="#003434"/>
</g>
<g filter="url(#filter1_d_1466_45067)">
<path d="M26 22.0051C25.0811 21.0795 24.3134 20.0169 23.7245 18.8558C22.7265 16.7577 21.9605 14.5582 21.4399 12.2959C21.2906 11.5064 20.2454 11.3609 20.0155 12.3256C19.6691 13.8424 19.3346 15.098 19.3346 15.098C19.3346 15.098 17.9161 13.8899 16.3094 7.80493C15.8555 6.10411 13.9204 5.98241 13.5441 7.85836C11.3611 18.8024 8.17471 21.0345 6.45459 22.011C6.6705 22.4211 7.00022 22.761 7.40462 22.9904C7.80902 23.2197 8.27113 23.329 8.73614 23.3052C10.6892 23.3052 10.5429 22.7294 11.8927 22.6581C12.9401 22.635 13.9783 22.8567 14.9238 23.3052C14.9238 23.3052 14.2728 22.8006 13.6665 20.9989C12.7408 18.2473 13.1559 17.0036 13.6038 16.8433C14.007 16.7127 14.9238 18.7578 14.9238 18.7578C14.6936 17.0523 14.5679 15.3345 14.5475 13.6138C14.5475 10.6812 14.9089 8.99223 15.4135 9.06347C15.5957 9.09019 15.6286 9.3603 15.8197 10.1469C16.4013 12.716 17.2293 15.2238 18.2924 17.6358C20.1618 21.7439 22.091 23.3052 22.091 23.3052C22.091 23.3052 21.861 21.6014 23.396 21.364C24.3135 21.2569 25.2389 21.4847 26 22.0051Z" fill="url(#paint0_linear_1466_45067)"/>
<path d="M19.3346 15.098C19.1076 15.3644 19.1074 15.3642 19.1071 15.364L19.1066 15.3635L19.1054 15.3625L19.1027 15.3601L19.0957 15.3539C19.0904 15.3491 19.0839 15.3431 19.0761 15.3356C19.0605 15.3206 19.0399 15.3 19.0146 15.273C18.9641 15.2188 18.8948 15.1387 18.809 15.0257C18.6376 14.7997 18.3998 14.4416 18.1143 13.8954C17.5437 12.8039 16.7792 10.9549 15.9712 7.89492C15.7752 7.16078 15.2897 6.84609 14.8926 6.84032C14.516 6.83485 14.0514 7.10931 13.8873 7.92682C12.791 13.4232 11.4372 16.7619 10.1223 18.8585C8.9482 20.7305 7.81136 21.6018 6.94337 22.1301C7.11343 22.3554 7.32882 22.545 7.5773 22.6859C7.92367 22.8824 8.31966 22.9761 8.71824 22.9557C8.7242 22.9554 8.73017 22.9552 8.73614 22.9552C9.66751 22.9552 10.0745 22.82 10.4089 22.6841C10.4536 22.666 10.4981 22.6472 10.5432 22.6283C10.869 22.4913 11.2216 22.3431 11.8742 22.3086L11.885 22.3081L11.885 22.3082C12.5874 22.2927 13.2859 22.3819 13.9577 22.5708C13.7601 22.2091 13.544 21.7321 13.3348 21.1105L13.6665 20.9989L13.3348 21.1105C12.8632 19.7088 12.7228 18.6622 12.7708 17.9266C12.7948 17.559 12.8667 17.2556 12.979 17.0218C13.0888 16.793 13.2554 16.5962 13.4859 16.5138L13.4959 16.5102L13.496 16.5103C13.7018 16.4436 13.8789 16.5344 13.9735 16.5989C14.0771 16.6696 14.1706 16.7679 14.2504 16.865C14.292 16.9155 14.3337 16.9704 14.3751 17.0283C14.2703 15.8946 14.211 14.7569 14.1975 13.618L14.1975 13.6138C14.1975 12.1374 14.2882 10.9565 14.4479 10.1446C14.5269 9.74268 14.6276 9.406 14.7574 9.16569C14.8732 8.95118 15.0989 8.66559 15.4625 8.71691L15.4643 8.71717C15.6093 8.73844 15.7237 8.81463 15.8049 8.92061C15.8738 9.01066 15.9156 9.11803 15.9462 9.21225C15.9893 9.3453 16.0336 9.53272 16.0886 9.76572C16.1104 9.85823 16.134 9.95792 16.1598 10.0643L16.1611 10.0696L16.161 10.0696C16.7376 12.6161 17.5582 15.1018 18.6118 17.4927C19.5342 19.5194 20.4685 20.9119 21.167 21.7937C21.4026 22.0911 21.6115 22.3306 21.7842 22.5168C21.7971 22.454 21.8129 22.3897 21.8322 22.3246C21.9111 22.0568 22.0511 21.7644 22.2978 21.5192C22.5479 21.2706 22.8905 21.088 23.3425 21.0181L23.3554 21.0161L23.3554 21.0163C23.8157 20.9626 24.2778 20.9861 24.7236 21.0824C24.222 20.437 23.7828 19.7445 23.4123 19.0141L23.4083 19.0062L23.4084 19.0061C22.3996 16.8851 21.6252 14.6615 21.0989 12.3744L21.0958 12.361L21.096 12.3609C21.0499 12.1171 20.88 12.009 20.7415 12.0025C20.628 11.9972 20.4391 12.06 20.3563 12.4053C20.1825 13.1662 20.0118 13.8613 19.8845 14.3661C19.8208 14.6188 19.768 14.824 19.731 14.9661C19.7125 15.0372 19.698 15.0926 19.6881 15.1302L19.6768 15.1731L19.6738 15.1842L19.6731 15.187L19.6729 15.1878L19.6728 15.188L19.6728 15.188L19.3346 15.098ZM19.3346 15.098L19.1076 15.3644C19.1991 15.4423 19.3242 15.4679 19.4389 15.4321C19.5535 15.3963 19.6419 15.3041 19.6728 15.188L19.3346 15.098Z" stroke="white" stroke-opacity="0.6" stroke-width="0.7" stroke-linejoin="round"/>
</g>
<defs>
<filter id="filter0_i_1466_45067" x="1" y="1.49023" width="30" height="30" filterUnits="userSpaceOnUse" color-interpolation-filters="sRGB">
<feFlood flood-opacity="0" result="BackgroundImageFix"/>
<feBlend mode="normal" in="SourceGraphic" in2="BackgroundImageFix" result="shape"/>
<feColorMatrix in="SourceAlpha" type="matrix" values="0 0 0 0 0 0 0 0 0 0 0 0 0 0 0 0 0 0 127 0" result="hardAlpha"/>
<feOffset/>
<feGaussianBlur stdDeviation="3.5"/>
<feComposite in2="hardAlpha" operator="arithmetic" k2="-1" k3="1"/>
<feColorMatrix type="matrix" values="0 0 0 0 0 0 0 0 0 0 0 0 0 0 0 0 0 0 1 0"/>
<feBlend mode="normal" in2="shape" result="effect1_innerShadow_1466_45067"/>
</filter>
<filter id="filter1_d_1466_45067" x="0.45459" y="0.490234" width="31.5454" height="28.8184" filterUnits="userSpaceOnUse" color-interpolation-filters="sRGB">
<feFlood flood-opacity="0" result="BackgroundImageFix"/>
<feColorMatrix in="SourceAlpha" type="matrix" values="0 0 0 0 0 0 0 0 0 0 0 0 0 0 0 0 0 0 127 0" result="hardAlpha"/>
<feOffset/>
<feGaussianBlur stdDeviation="3"/>
<feComposite in2="hardAlpha" operator="out"/>
<feColorMatrix type="matrix" values="0 0 0 0 0 0 0 0 0 0 0 0 0 0 0 0 0 0 0.7 0"/>
<feBlend mode="normal" in2="BackgroundImageFix" result="effect1_dropShadow_1466_45067"/>
<feBlend mode="normal" in="SourceGraphic" in2="effect1_dropShadow_1466_45067" result="shape"/>
</filter>
<linearGradient id="paint0_linear_1466_45067" x1="16.2273" y1="6.49023" x2="16.2273" y2="23.3084" gradientUnits="userSpaceOnUse">
<stop stop-color="#B8FFFB"/>
<stop offset="1" stop-color="#2ABBBB"/>
</linearGradient>
</defs>
</svg>
