<svg width="115" height="115" viewBox="0 0 115 115" fill="none" xmlns="http://www.w3.org/2000/svg">
<mask id="path-1-inside-1_644_20444" fill="white">
<path fill-rule="evenodd" clip-rule="evenodd" d="M49.6698 10.0233C23.5059 14.2909 5.75552 38.9606 10.0232 65.1245C14.2908 91.2884 38.9605 109.039 65.1244 104.771C91.2883 100.503 109.039 75.8338 104.771 49.6699C100.503 23.506 75.8337 5.75561 49.6698 10.0233ZM49.3479 8.04935C22.0938 12.4948 3.60378 38.1924 8.04926 65.4464C12.4947 92.7005 38.1923 111.191 65.4463 106.745C92.7004 102.3 111.19 76.602 106.745 49.348C102.299 22.0939 76.6019 3.60388 49.3479 8.04935Z"/>
</mask>
<path d="M11.9971 64.8025C7.90725 39.7288 24.9181 16.087 49.9918 11.9972L49.3479 8.04935C22.0938 12.4948 3.60378 38.1924 8.04926 65.4464L11.9971 64.8025ZM64.8024 102.797C39.7287 106.887 16.0869 89.8762 11.9971 64.8025L8.04926 65.4464C12.4947 92.7005 38.1923 111.191 65.4463 106.745L64.8024 102.797ZM102.797 49.9919C106.887 75.0656 89.8761 98.7074 64.8024 102.797L65.4463 106.745C92.7004 102.3 111.19 76.602 106.745 49.348L102.797 49.9919ZM49.9918 11.9972C75.0655 7.90735 98.7073 24.9182 102.797 49.9919L106.745 49.348C102.299 22.0939 76.6019 3.60388 49.3479 8.04935L49.9918 11.9972ZM10.0232 65.1245C5.75552 38.9606 23.5059 14.2909 49.6698 10.0233L49.0259 6.07544C20.6817 10.6987 1.45205 37.4242 6.07534 65.7684L10.0232 65.1245ZM65.1244 104.771C38.9605 109.039 14.2908 91.2884 10.0232 65.1245L6.07534 65.7684C10.6986 94.1126 37.4241 113.342 65.7683 108.719L65.1244 104.771ZM104.771 49.6699C109.039 75.8338 91.2883 100.503 65.1244 104.771L65.7683 108.719C94.1125 104.096 113.342 77.3702 108.719 49.026L104.771 49.6699ZM49.6698 10.0233C75.8337 5.75561 100.503 23.506 104.771 49.6699L108.719 49.026C104.096 20.6818 77.3701 1.45215 49.0259 6.07544L49.6698 10.0233Z" fill="url(#paint0_angular_644_20444)" mask="url(#path-1-inside-1_644_20444)"/>
<path d="M57.1209 63.0351L57.1214 63.0348L91.5438 39.7093L56.8726 73.6098C56.4715 73.9966 55.8291 73.9967 55.4277 73.6103C55.4275 73.6102 55.4273 73.61 55.4272 73.6098L22.7972 41.1717L55.6014 63.0351C56.0575 63.3405 56.6648 63.3405 57.1209 63.0351Z" fill="#EDDBAC" stroke="#6D4036" stroke-width="0.2"/>
<defs>
<radialGradient id="paint0_angular_644_20444" cx="0" cy="0" r="1" gradientUnits="userSpaceOnUse" gradientTransform="translate(57.3971 57.3972) rotate(-99.2641) scale(50)">
<stop stop-color="#FFEA9E"/>
<stop offset="0.380208" stop-color="#986530"/>
<stop offset="0.755208" stop-color="#DCCBB9"/>
<stop offset="1" stop-color="white"/>
</radialGradient>
</defs>
</svg>
