<?xml version="1.0" encoding="UTF-8" standalone="no"?>
<svg
   width="36"
   height="36"
   viewBox="0 0 36 36"
   fill="none"
   version="1.1"
   id="svg228"
   sodipodi:docname="switch.svg"
   inkscape:version="1.2.2 (b0a8486541, 2022-12-01)"
   xmlns:inkscape="http://www.inkscape.org/namespaces/inkscape"
   xmlns:sodipodi="http://sodipodi.sourceforge.net/DTD/sodipodi-0.dtd"
   xmlns="http://www.w3.org/2000/svg"
   xmlns:svg="http://www.w3.org/2000/svg">
  <sodipodi:namedview
     id="namedview230"
     pagecolor="#ffffff"
     bordercolor="#000000"
     borderopacity="0.25"
     inkscape:showpageshadow="2"
     inkscape:pageopacity="0.0"
     inkscape:pagecheckerboard="0"
     inkscape:deskcolor="#d1d1d1"
     showgrid="false"
     inkscape:zoom="21.395833"
     inkscape:cx="16.825706"
     inkscape:cy="24.584226"
     inkscape:window-width="3440"
     inkscape:window-height="1379"
     inkscape:window-x="1440"
     inkscape:window-y="391"
     inkscape:window-maximized="1"
     inkscape:current-layer="svg228" />
  <g
     id="g469"
     transform="matrix(0.99907382,0,0,1.0063305,-5.5427697,-4.8997871)">
    <g
       filter="url(#filter0_d_1977_30122)"
       id="g167"
       transform="translate(0.03161894,0.98012453)">
      <ellipse
         cx="23.5054"
         cy="21.8601"
         rx="17.4624"
         ry="17.4226"
         fill="url(#paint0_linear_1977_30122)"
         id="ellipse163"
         style="fill:url(#paint0_linear_1977_30122)" />
      <path
         d="m 40.4679,21.8601 c 0,9.345 -7.5933,16.9225 -16.9625,16.9225 -9.3692,0 -16.96243,-7.5775 -16.96243,-16.9225 0,-9.345 7.59323,-16.9226 16.96243,-16.9226 9.3692,0 16.9625,7.5776 16.9625,16.9226 z"
         stroke="url(#paint1_linear_1977_30122)"
         id="path165"
         style="stroke:url(#paint1_linear_1977_30122)" />
    </g>
    <g
       filter="url(#filter1_d_1977_30122)"
       id="g171"
       transform="translate(0.03161894,0.98012453)">
      <path
         d="m 21.1826,21.689 c -0.7167,0.0649 -1.4471,0.1071 -2.1843,0.133 -0.0333,0.0014 -0.0665,-0.0038 -0.0975,-0.0152 -0.0311,-0.0113 -0.0594,-0.0287 -0.0831,-0.0509 -0.0237,-0.0222 -0.0423,-0.0489 -0.0547,-0.0782 -0.0124,-0.0294 -0.0183,-0.0609 -0.0173,-0.0925 0.1468,-2.3945 2.1161,-4.2991 4.5461,-4.2991 0.784,6e-4 1.5532,0.2035 2.2253,0.5873 0.0736,0.0385 0.1595,0.0499 0.2414,0.032 0.0819,-0.018 0.1539,-0.064 0.2023,-0.1293 0.43,-0.5884 0.8783,-1.1908 1.3447,-1.8073 0.0271,-0.0352 0.0464,-0.0753 0.0568,-0.1179 0.0104,-0.0425 0.0117,-0.0867 0.0037,-0.1297 -0.0079,-0.043 -0.025,-0.0841 -0.05,-0.1207 -0.0251,-0.0366 -0.0577,-0.068 -0.0958,-0.0924 -1.1686,-0.7241 -2.5335,-1.1096 -3.9284,-1.1096 -0.1365,0 -0.273,0 -0.4095,0 -0.0441,-0.0066 -0.089,-0.0066 -0.1331,0 -1.4604,0.1276 -2.8505,0.6553 -4.0016,1.5192 -1.1511,0.8639 -2.0137,2.0268 -2.4831,3.3476 l -0.0615,0.1752 c -0.058,0.1493 -0.1194,0.3083 -0.1467,0.4737 -0.0273,0.1655 -0.0615,0.2369 -0.0888,0.3569 -0.0273,0.1201 -0.0409,0.1915 -0.058,0.2888 -0.0307,0.1655 -0.0546,0.3245 -0.0717,0.4964 0,0.0487 0,0.1006 0,0.1493 0,0.133 -0.0205,0.2628 -0.0239,0.3958 -4e-4,0.0304 -0.0072,0.0604 -0.0201,0.0882 -0.0128,0.0279 -0.0314,0.053 -0.0546,0.0738 -0.0233,0.0209 -0.0507,0.0371 -0.0806,0.0478 -0.03,0.0106 -0.0619,0.0154 -0.0938,0.0141 -0.6826,-0.026 -1.3493,-0.0681 -2,-0.1265 -0.3891,-0.0325 -0.6656,0.3244 -0.4744,0.6002 0.8259,1.2556 2.116,3.131 3.645,5.0777 0.0731,0.0933 0.1681,0.1691 0.2774,0.2213 0.1093,0.0522 0.23,0.0794 0.3523,0.0794 0.1224,0 0.243,-0.0272 0.3524,-0.0794 0.1093,-0.0522 0.2043,-0.128 0.2773,-0.2213 1.5325,-1.9467 2.8192,-3.8221 3.6622,-5.0874 0.1911,-0.2856 -0.0819,-0.6327 -0.4744,-0.6003 z m 12.3277,-0.2628 c -0.843,-1.2654 -2.1331,-3.1342 -3.6621,-5.1004 -0.0731,-0.0933 -0.168,-0.1691 -0.2774,-0.2213 -0.1093,-0.0522 -0.23,-0.0794 -0.3523,-0.0794 -0.1224,0 -0.243,0.0272 -0.3523,0.0794 -0.1094,0.0522 -0.2044,0.128 -0.2774,0.2213 -1.5324,1.9662 -2.8191,3.835 -3.6622,5.1004 -0.1945,0.2855 0.082,0.6327 0.4744,0.6003 0.7168,-0.0649 1.4472,-0.1071 2.1844,-0.1331 0.0332,-0.0013 0.0664,0.0039 0.0975,0.0152 0.031,0.0114 0.0593,0.0288 0.083,0.051 0.0237,0.0222 0.0423,0.0488 0.0547,0.0782 0.0124,0.0294 0.0183,0.0608 0.0173,0.0925 -0.1501,2.3945 -2.1297,4.299 -4.5461,4.299 -0.784,-5e-4 -1.5532,-0.2035 -2.2253,-0.5872 -0.0736,-0.0386 -0.1595,-0.05 -0.2414,-0.032 -0.0818,0.018 -0.1539,0.064 -0.2022,0.1293 -0.4301,0.5873 -0.8806,1.1908 -1.3448,1.8072 -0.0272,0.0351 -0.0468,0.075 -0.0575,0.1175 -0.0106,0.0424 -0.0122,0.0864 -0.0045,0.1294 0.0076,0.043 0.0243,0.0841 0.049,0.1209 0.0248,0.0367 0.0571,0.0683 0.0949,0.0929 1.1694,0.726 2.5352,1.1137 3.9318,1.1162 h 0.4096 c 0.0442,0.0049 0.0889,0.0049 0.1331,0 1.4608,-0.1264 2.8514,-0.6537 4.0027,-1.5178 1.1513,-0.8641 2.0136,-2.0276 2.482,-3.3491 0.0239,-0.0584 0.0443,-0.1168 0.0648,-0.1752 0.0512,-0.1525 0.099,-0.305 0.14,-0.4607 0.0409,-0.1557 0.0614,-0.2369 0.0887,-0.3569 0.0273,-0.1201 0.041,-0.1914 0.058,-0.2888 0.0307,-0.1654 0.0546,-0.3244 0.0717,-0.4964 0,-0.0487 0,-0.1006 0,-0.1492 0,-0.1331 0.0205,-0.2629 0.0239,-0.3959 9e-4,-0.0302 0.008,-0.06 0.021,-0.0877 0.013,-0.0276 0.0316,-0.0525 0.0548,-0.0733 0.0231,-0.0208 0.0503,-0.037 0.0801,-0.0478 0.0297,-0.0108 0.0614,-0.0159 0.0932,-0.0151 0.6826,0.026 1.3493,0.0682 2,0.1266 0.4096,0.0227 0.6861,-0.3245 0.4949,-0.61 z"
         fill="url(#paint2_linear_1977_30122)"
         fill-opacity="0.85"
         shape-rendering="crispEdges"
         id="path169"
         style="fill:url(#paint2_linear_1977_30122)" />
    </g>
  </g>
  <defs
     id="defs226">
    <filter
       id="filter0_d_1977_30122"
       x="0.042968798"
       y="0.4375"
       width="46.924801"
       height="46.8447"
       filterUnits="userSpaceOnUse"
       color-interpolation-filters="sRGB">
      <feFlood
         flood-opacity="0"
         result="BackgroundImageFix"
         id="feFlood173" />
      <feColorMatrix
         in="SourceAlpha"
         type="matrix"
         values="0 0 0 0 0 0 0 0 0 0 0 0 0 0 0 0 0 0 127 0"
         result="hardAlpha"
         id="feColorMatrix175" />
      <feOffset
         dy="2"
         id="feOffset177" />
      <feGaussianBlur
         stdDeviation="3"
         id="feGaussianBlur179" />
      <feComposite
         in2="hardAlpha"
         operator="out"
         id="feComposite181" />
      <feColorMatrix
         type="matrix"
         values="0 0 0 0 0 0 0 0 0 0 0 0 0 0 0 0 0 0 0.5 0"
         id="feColorMatrix183" />
      <feBlend
         mode="normal"
         in2="BackgroundImageFix"
         result="effect1_dropShadow_1977_30122"
         id="feBlend185" />
      <feBlend
         mode="normal"
         in="SourceGraphic"
         in2="effect1_dropShadow_1977_30122"
         result="shape"
         id="feBlend187" />
    </filter>
    <filter
       id="filter1_d_1977_30122"
       x="7.0283198"
       y="10.3936"
       width="32.5439"
       height="26.933599"
       filterUnits="userSpaceOnUse"
       color-interpolation-filters="sRGB">
      <feFlood
         flood-opacity="0"
         result="BackgroundImageFix"
         id="feFlood190" />
      <feColorMatrix
         in="SourceAlpha"
         type="matrix"
         values="0 0 0 0 0 0 0 0 0 0 0 0 0 0 0 0 0 0 127 0"
         result="hardAlpha"
         id="feColorMatrix192" />
      <feOffset
         dy="2"
         id="feOffset194" />
      <feGaussianBlur
         stdDeviation="3"
         id="feGaussianBlur196" />
      <feComposite
         in2="hardAlpha"
         operator="out"
         id="feComposite198" />
      <feColorMatrix
         type="matrix"
         values="0 0 0 0 0 0 0 0 0 0 0 0 0 0 0 0 0 0 0.5 0"
         id="feColorMatrix200" />
      <feBlend
         mode="normal"
         in2="BackgroundImageFix"
         result="effect1_dropShadow_1977_30122"
         id="feBlend202" />
      <feBlend
         mode="normal"
         in="SourceGraphic"
         in2="effect1_dropShadow_1977_30122"
         result="shape"
         id="feBlend204" />
    </filter>
    <linearGradient
       id="paint0_linear_1977_30122"
       x1="23.5054"
       y1="4.4375"
       x2="23.5054"
       y2="39.2826"
       gradientUnits="userSpaceOnUse">
      <stop
         stop-color="#020202"
         id="stop207" />
      <stop
         offset="1"
         stop-color="#222531"
         id="stop209" />
    </linearGradient>
    <linearGradient
       id="paint1_linear_1977_30122"
       x1="23.5054"
       y1="4.4375"
       x2="23.5054"
       y2="39.2826"
       gradientUnits="userSpaceOnUse">
      <stop
         stop-color="white"
         id="stop212" />
      <stop
         offset="1"
         stop-color="#B79C73"
         id="stop214" />
    </linearGradient>
    <linearGradient
       id="paint2_linear_1977_30122"
       x1="23.3002"
       y1="14.3936"
       x2="23.3002"
       y2="29.3272"
       gradientUnits="userSpaceOnUse">
      <stop
         stop-color="#FFFACA"
         id="stop217" />
      <stop
         offset="0.213542"
         stop-color="#FFF389"
         id="stop219" />
      <stop
         offset="0.671875"
         stop-color="#FFDA82"
         id="stop221" />
      <stop
         offset="1"
         stop-color="#FFA072"
         id="stop223" />
    </linearGradient>
  </defs>
</svg>
